<?xml version="1.0" encoding="utf-8"?>
<!-- Generator: Adobe Illustrator 28.3.0, SVG Export Plug-In . SVG Version: 6.00 Build 0)  -->
<svg version="1.1" id="Camada_1" xmlns="http://www.w3.org/2000/svg" xmlns:xlink="http://www.w3.org/1999/xlink" x="0px" y="0px" viewBox="0 0 1683.78 1190.55" style="enable-background:new 0 0 1683.78 1190.55;" xml:space="preserve">
  <style type="text/css">
    .st0 {
      fill-rule: evenodd;
      clip-rule: evenodd;
      fill: #FAF7EA;
    }

    .st1 {
      fill-rule: evenodd;
      clip-rule: evenodd;
      fill: #FFED00;
    }

    .st2 {
      fill-rule: evenodd;
      clip-rule: evenodd;
      fill: #D9EBDB;
    }

    .st3 {
      fill-rule: evenodd;
      clip-rule: evenodd;
      fill: #E9E9E9;
    }

    .st4 {
      fill: #706F6F;
    }

    .st5 {
      font-family: 'ArialNarrow';
    }

    .st6 {
      font-size: 21.1684px;
    }

    .st7 {
      fill-rule: evenodd;
      clip-rule: evenodd;
      fill: #FFFFFF;
    }

    .st8 {
      fill: none;
      stroke: #727D93;
      stroke-width: 7.0866;
      stroke-miterlimit: 22.9256;
    }

    .st9 {
      fill-rule: evenodd;
      clip-rule: evenodd;
      fill: #009FE3;
      stroke: #003056;
      stroke-width: 1.4173;
      stroke-miterlimit: 22.9256;
    }

    .st10 {
      fill-rule: evenodd;
      clip-rule: evenodd;
      fill: #EBF5EC;
      stroke: #006B2D;
      stroke-width: 0.5669;
      stroke-miterlimit: 22.9256;
    }

    .st11 {
      fill-rule: evenodd;
      clip-rule: evenodd;
      fill: #E7ECF0;
      stroke: #727D93;
      stroke-width: 1.4173;
      stroke-miterlimit: 22.9256;
    }

    .st12 {
      fill-rule: evenodd;
      clip-rule: evenodd;
      fill: #E7ECF0;
      stroke: #003056;
      stroke-width: 1.4173;
      stroke-miterlimit: 22.9256;
    }

    .st13 {
      fill-rule: evenodd;
      clip-rule: evenodd;
      fill: #EDEDED;
      stroke: #727D93;
      stroke-width: 1.4173;
      stroke-miterlimit: 22.9256;
    }

    .st14 {
      fill-rule: evenodd;
      clip-rule: evenodd;
      fill: #EDEDED;
      stroke: #8B99B4;
      stroke-width: 1.2966;
      stroke-miterlimit: 22.9256;
    }

    .st15 {
      fill-rule: evenodd;
      clip-rule: evenodd;
      fill: #EDEDED;
    }

    .st16 {
      fill-rule: evenodd;
      clip-rule: evenodd;
      fill: #009FE3;
      stroke: #003056;
      stroke-width: 1.4169;
      stroke-miterlimit: 22.9256;
    }

    .st17 {
      fill-rule: evenodd;
      clip-rule: evenodd;
      fill: #009FE3;
      stroke: #003056;
      stroke-width: 1.417;
      stroke-miterlimit: 22.9256;
    }

    .st18 {
      fill: #FFFFFF;
    }

    .st19 {
      font-family: 'ArialNarrow-Bold';
    }

    .st20 {
      font-size: 31.7529px;
    }

    .st21 {
      fill-rule: evenodd;
      clip-rule: evenodd;
      fill: #009FE3;
      stroke: #003056;
      stroke-width: 1.4172;
      stroke-miterlimit: 22.9256;
    }

    .st22 {
      fill: none;
      stroke: #706F6F;
      stroke-width: 5.6693;
      stroke-miterlimit: 22.9256;
    }

    .st23 {
      fill: none;
      stroke: #9D9D9C;
      stroke-width: 11.3386;
      stroke-miterlimit: 22.9256;
    }

    .st24 {
      fill-rule: evenodd;
      clip-rule: evenodd;
      fill: #EDEDED;
      stroke: #AAB3C9;
      stroke-width: 1.4173;
      stroke-miterlimit: 22.9256;
    }

    .st25 {
      fill-rule: evenodd;
      clip-rule: evenodd;
      fill: #727D93;
    }

    .st26 {
      fill-rule: evenodd;
      clip-rule: evenodd;
      fill: #EDEDED;
      stroke: #8B99B4;
      stroke-width: 1.4173;
      stroke-miterlimit: 22.9256;
    }

    .st27 {
      fill: #677B9D;
    }

    .st28 {
      fill-rule: evenodd;
      clip-rule: evenodd;
      fill: #677B9D;
    }

    .st29 {
      fill-rule: evenodd;
      clip-rule: evenodd;
      fill: #009FE3;
      stroke: #003056;
      stroke-width: 1.4174;
      stroke-miterlimit: 22.9256;
    }

    .st30 {
      letter-spacing: -1;
    }

    .st31 {
      fill-rule: evenodd;
      clip-rule: evenodd;
      fill: #EBEFEC;
    }

    .st32 {
      fill-rule: evenodd;
      clip-rule: evenodd;
      fill: #DADADA;
      stroke: #B2B2B2;
      stroke-width: 2.8346;
      stroke-miterlimit: 22.9256;
    }

    .st33 {
      fill-rule: evenodd;
      clip-rule: evenodd;
      fill: #EDEDED;
      stroke: #003056;
      stroke-width: 1.4173;
      stroke-miterlimit: 22.9256;
    }

    .st35 {
      font-size: 33.8881px;
    }

    .st36 {
      fill-rule: evenodd;
      clip-rule: evenodd;
      fill: #FFFFFF;
      stroke: #003056;
      stroke-width: 1.4173;
      stroke-miterlimit: 22.9256;
    }

    .st37 {
      fill-rule: evenodd;
      clip-rule: evenodd;
      fill: #EAF6FE;
      stroke: #AFDFF9;
      stroke-width: 0.5669;
      stroke-miterlimit: 22.9256;
    }

    .st38 {
      fill-rule: evenodd;
      clip-rule: evenodd;
      fill: #DADADA;
    }

    .st39 {
      fill-rule: evenodd;
      clip-rule: evenodd;
      fill: #B2B2B2;
    }

    .st40 {
      fill-rule: evenodd;
      clip-rule: evenodd;
      fill: #ECF3DC;
      stroke: #009640;
      stroke-width: 1.4173;
      stroke-miterlimit: 22.9256;
    }

    .st41 {
      fill-rule: evenodd;
      clip-rule: evenodd;
      fill: #ECF3DC;
      stroke: #73BE87;
      stroke-width: 0.7087;
      stroke-miterlimit: 22.9256;
    }

    .st42 {
      fill-rule: evenodd;
      clip-rule: evenodd;
      fill: #EDEDED;
      stroke: #C6C6C6;
      stroke-width: 0.5669;
      stroke-miterlimit: 22.9256;
    }

    .st43 {
      fill-rule: evenodd;
      clip-rule: evenodd;
      fill: #FFF594;
    }

    .st44 {
      fill-rule: evenodd;
      clip-rule: evenodd;
      fill: #FFFACE;
    }

    .st45 {
      font-size: 30.4028px;
    }

    .st46 {
      letter-spacing: 4;
    }

    .st47 {
      fill-rule: evenodd;
      clip-rule: evenodd;
      fill: #706F6F;
      stroke: #000000;
      stroke-width: 0.5669;
      stroke-miterlimit: 22.9256;
    }

    .st48 {
      fill: #878787;
    }

    .st49 {
      clip-path: url(#SVGID_00000088104417390904828390000004560507813562389679_);
      fill-rule: evenodd;
      clip-rule: evenodd;
    }

    .st50 {
      fill: none;
      stroke: #000000;
      stroke-width: 1.4174;
      stroke-miterlimit: 22.9256;
    }

    .st51 {
      fill: none;
      stroke: #000000;
      stroke-width: 1.4173;
      stroke-miterlimit: 22.9256;
    }

    .st52 {
      fill-rule: evenodd;
      clip-rule: evenodd;
    }

    .st53 {
      clip-path: url(#SVGID_00000158740885798444465590000013889612609406255272_);
      fill-rule: evenodd;
      clip-rule: evenodd;
    }

    .st54 {
      clip-path: url(#SVGID_00000046308729970212353820000012917506694095524012_);
      fill-rule: evenodd;
      clip-rule: evenodd;
    }

    .st56 {
      fill-rule: evenodd;
      clip-rule: evenodd;
      fill: #003056;
    }

    .st57 {
      clip-path: url(#SVGID_00000160161483829762212090000008182190138470708410_);
      fill-rule: evenodd;
      clip-rule: evenodd;
    }

    .st58 {
      clip-path: url(#SVGID_00000158025287740151176450000009961558639346021292_);
      fill-rule: evenodd;
      clip-rule: evenodd;
    }

    .st59 {
      fill-rule: evenodd;
      clip-rule: evenodd;
      fill: #FFFFFF;
      stroke: #003056;
      stroke-width: 1.4174;
      stroke-miterlimit: 22.9256;
    }

    .st60 {
      clip-path: url(#SVGID_00000047748298967566186730000007049651456612129170_);
      fill-rule: evenodd;
      clip-rule: evenodd;
    }

    .st61 {
      clip-path: url(#SVGID_00000003078516364827825800000004637554580382177413_);
      fill-rule: evenodd;
      clip-rule: evenodd;
    }

    .st62 {
      fill-rule: evenodd;
      clip-rule: evenodd;
      fill: #9D9D9C;
    }

    .st63 {
      fill-rule: evenodd;
      clip-rule: evenodd;
      fill: #009FE3;
    }

    .st64 {
      fill-rule: evenodd;
      clip-rule: evenodd;
      fill: #9D9D9C;
      stroke: #706F6F;
      stroke-width: 0.216;
      stroke-miterlimit: 22.9256;
    }

    .st65 {
      clip-path: url(#SVGID_00000160889526271577907040000001456826306750685615_);
      fill-rule: evenodd;
      clip-rule: evenodd;
    }

    .st66 {
      clip-path: url(#SVGID_00000039099048792483385600000013230105889492618403_);
      fill-rule: evenodd;
      clip-rule: evenodd;
    }

    .st67 {
      font-size: 21.1687px;
    }

    .st68 {
      font-size: 27.289px;
    }

    .st69 {
      font-family: 'ArialMT';
    }

    .st70 {
      font-size: 17.5336px;
    }

    .st71 {
      fill-rule: evenodd;
      clip-rule: evenodd;
      fill: none;
    }

    .st72 {
      font-size: 19.8413px;
    }

    .st73 {
      fill: none;
    }

    .st74 {
      font-size: 17.0068px;
    }

    .st75 {
      font-size: 17.432px;
    }

    .st76 {
      fill: #5E5E5E;
    }

    .st77 {
      font-size: 17.7154px;
    }
  </style>
  <polygon class="st0" points="-14.17,-14.17 1697.95,-14.17 1697.95,1018.29 -14.17,1018.29 -14.17,-14.17 " />
  <polygon class="st1" points="826.82,34.37 843.14,38.46 840.74,35.2 856.96,35.09 856.94,33.06 840.72,33.18 843.08,29.89 
	826.82,34.37 " />
  <polygon class="st1" points="826.82,34.37 843.14,38.46 840.74,35.2 856.96,35.09 856.94,33.06 840.72,33.18 843.08,29.89 
	826.82,34.37 " />
  <g>
    <polygon class="st2" points="450.42,542.09 433.21,542.09 433.21,808.52 450.42,808.52 450.42,542.09 	" />
    <path class="st3" d="M451.81,895.35v66.18c-198.28,0-80.54,0-278.82,0v-66.18C408.02,895.35,216.77,895.35,451.81,895.35
		L451.81,895.35z" />
    <path class="st2" d="M444.08,891.09H197.47v-51.86h-24.91V902h279.73c0-20.83,0-54.18,0-84.93h-8.21V891.09L444.08,891.09z" />
    <text transform="matrix(1 0 0 1 217.1797 940.8896)" class="st4 st5 st6">Praça dos Três Poderes</text>
    <polygon class="st7" points="764.46,946.8 1487.51,946.8 1487.51,996.53 764.46,996.53 764.46,946.8 	" />
    <line class="st8" x1="436.51" y1="814.39" x2="455.5" y2="814.39" />
    <polygon class="st9" points="522.98,577.81 522.98,598.18 418.11,598.18 418.11,577.81 522.98,577.81 	" />
    <polygon class="st10" points="980.66,617.46 980.66,470.01 1004.94,470.02 1004.94,617.46 980.66,617.46 	" />
    <polygon class="st10" points="1020.28,617.46 1020.28,578.39 1027.7,578.4 1027.7,617.46 1020.28,617.46 	" />
    <polygon class="st2" points="172.56,176.16 450.42,175.87 450.42,547.88 172.56,547.88 172.56,176.16 	" />
    <polygon class="st11" points="795.8,324.76 797.79,279.79 1127.95,279.79 1127.95,361.44 1188.29,361.44 1188.29,699.88 
		1548.04,699.88 1548.04,921.17 706.67,921.17 674.78,866.3 655.79,839.57 795.8,324.76 	" />
    <polygon class="st12" points="1548.46,380.01 1460.39,380.01 1460.39,315.7 1299.7,315.7 1299.7,53.81 1548.46,53.81 
		1548.46,380.01 	" />
    <polygon class="st13" points="762.85,343.27 644.23,759.33 569.1,760.24 539.93,723.55 508.35,723.55 508.35,342.51 762.85,343.27 
			" />
    <!-- local estacionamento-5 -->
    <path class="st14 local estacionamento-5" d="M441.35,710.68v177.45c-65.18,0-26.47,0-91.64,0V710.68C426.96,710.68,364.1,710.68,441.35,710.68
		L441.35,710.68z" />
    <path class="st15" d="M347.96,695.19v195.95c-69.07,0-78.58,0-147.64,0v-54.71h-29.4v-9.4h29.4V695.19
		C282.18,695.19,266.09,695.19,347.96,695.19L347.96,695.19z" />
    <path class="st3" d="M1041.33,120.07v154.9c-169.82,0-68.97,0-238.8,0v-154.9C1003.84,120.07,840.04,120.07,1041.33,120.07
		L1041.33,120.07z" />
    <polygon class="st2" points="1539.87,62.29 1462.69,62.29 1462.69,376.18 1539.87,376.18 1539.87,62.29 	" />
    <polygon class="st2" points="1383.79,133.13 1325.04,133.13 1325.04,261.56 1383.79,261.56 1383.79,133.13 	" />
    <polygon class="st2" points="821.56,362.45 785.63,426.55 985.42,426.55 985.42,362.45 821.56,362.45 	" />
    <polygon class="st9 local local-14" points="1034.46,421.79 1034.46,372.99 1079.58,372.99 1080.56,372.99 1117.24,372.99 1117.24,794.03 
		1079.58,794.03 1079.58,421.79 1034.46,421.79 	" />
    <polygon class="st16 local local-9" points="900.78,688.52 900.78,520.74 953.41,520.74 953.41,688.52 900.78,688.52 	" />
    <polygon class="st9 local local-8" points="845.77,641.44 845.77,520.74 898.4,520.74 898.4,641.44 845.77,641.44 	" />
    <polygon class="st17 local local-7" points="808.72,656.78 808.72,537.63 841.25,537.63 841.25,656.78 808.72,656.78 	" />
    <text transform="matrix(1 0 0 1 919.5732 593.1455)" class="st18 st19 st20">9</text>
    <text transform="matrix(1 0 0 1 864.375 593.1455)" class="st18 st19 st20">8</text>
    <text transform="matrix(1 0 0 1 820.5508 593.1455)" class="st18 st19 st20">7</text>
    <text transform="matrix(1 0 0 1 1083.5068 598.7822)" class="st18 st19 st20">14</text>
    <polygon class="st9 local local-6" points="986.91,578.06 986.91,460.53 1039.54,460.53 1039.54,578.06 986.91,578.06 	" />
    <text transform="matrix(1 0 0 1 1005.376 531.2529)" class="st18 st19 st20">6</text>
    <polygon class="st9 local local-4" points="828.84,516.9 828.84,475.93 898.59,475.93 898.59,516.9 828.84,516.9 	" />
    <polygon class="st9 local local-5" points="909.68,516.9 909.68,475.93 951.25,475.93 951.25,516.9 909.68,516.9 	" />
    <text transform="matrix(1 0 0 1 859.4248 507.5195)" class="st18 st19 st20">4</text>
    <text transform="matrix(1 0 0 1 924.6719 508.166)" class="st18 st19 st20">5</text>
    <path class="st21 local local-2" d="M820.79,363.14v-43.79H924.4v43.79h-23.04l-0.12,32.88c-25.46,0-41.16-14.4-41.5-32.88H820.79L820.79,363.14z
		" />
    <polygon class="st9 local local-21" points="1470,364.89 1470,324.37 1533.52,324.37 1533.52,364.89 1470,364.89 	" />
    <polygon class="st9 local local-20" points="1432.89,281 1432.89,215.53 1481.52,215.53 1481.52,281 1432.89,281 	" />
    <polygon class="st2" points="803.41,701.07 928.76,704.16 1044.6,704.16 1044.6,792.19 803.41,792.19 803.41,701.07 	" />
    <polygon class="st9 local local-19" points="1395.12,208.51 1395.12,203.43 1395.12,115.18 1454.14,115.18 1454.14,208.51 1428.35,208.51 
		1428.35,296.77 1395.12,296.77 1395.12,208.51 	" />
    <text transform="matrix(1 0 0 1 1409.7197 175.5986)" class="st18 st19 st20">19</text>
    <path class="st8" d="M1311.67,43.92v261.03h134.32 M744.22,450.12h-44.97" />
    <text transform="matrix(1.0092 0 0 1 1442.8838 259.4736)" class="st18 st19 st20">20</text>
    <line class="st22" x1="1557.48" y1="718.7" x2="1444.98" y2="718.7" />
    <line class="st8" x1="1557.48" y1="718.7" x2="1444.98" y2="718.7" />
    <polyline class="st23" points="790.31,110.07 1041.69,110.07 1041.69,41.27 1560.33,41.27 1560.33,962.73 	" />
    <!-- local estacionamento-7 -->
    <polygon class="st24 local estacionamento-7" points="698.34,822.35 712.45,867.33 1034.82,867.33 1034.82,822.35 698.34,822.35 	" />
    <!-- local estacionamento-6 -->
    <polygon class="st24 local estacionamento-6" points="795.31,743.59 744.79,743.59 744.56,664.88 706.57,664.88 670.63,801.07 795.31,801.07 
		795.31,743.59 	" />
    <path class="st8" d="M755.89,434.74h243.09l0.23-78.03 M788.99,293.95h42.34 M1454.59,719.71v75.17c0,9.77-6.27,12.71-18.91,12.71
		c-78.37,0-146.3,0-224.67,0c-8.76,0-11.57,5.03-11.57,14.84v77.29 M776.04,802.77c1.24,9.09,7.54,8.62,25.91,8.62h227.16
		c16.19,0,18,5.07,18,16.35v35.62c0,8.09-2.28,14.94-20.36,14.94h-321.5c-13.33-0.12-19.16-41.45-21.18-51.35
		c-1.78-8.72,7.43-15.56,14.09-15.56c14.87,0,47.54-0.01,62.93,0c8.72,0,15.2,0.76,14.72-9.44c-0.54-11.63-3.59-9.55-17.56-9.55
		h-30.12c-12.84,0-18.71-9.82-16.93-22.6l10.67-76.42c2.38-17.09,14.57-18.95,23.75-18.95h30.53c10.17,0,12.68-6.7,12.73-17.53
		l0.79-183.99c0.01-3.01,0.89-20.02-6.13-18.34l-33.29-0.88 M974.98,438.89v242.39 M675.87,898.78h813.51
		c20.25,0,22.3-13.49,22.3-35.49V716.02 M1013.45,578.54v57.98h-36.52" />
    <polygon class="st25" points="785.11,434.52 757.9,434.06 751.75,454.83 766.05,454.83 785.11,450.22 785.11,434.52 	" />
    <path class="st23" d="M787.76,41.57v177.63c0,23.26-4.61,94.54-9.28,111.35L642.77,818.9c-5.33,22.12-3.37,31.12,16.09,63.12
		l53.51,83.05" />
    <line class="st8" x1="879.16" y1="899.08" x2="879.16" y2="876.15" />
    <!-- local estacionamento-10 -->
    <polygon class="st24 local estacionamento-10" points="1499.67,727.23 1466.59,727.23 1466.59,806.06 1456.01,816.65 1384.76,816.65 1384.76,873.84 
		1385.11,873.84 1385.11,888.39 1489.52,888.84 1499.67,878.69 1499.67,727.23 	" />
    <!-- local estacionamento-2 -->
    <polygon class="st26 local estacionamento-2" points="831.93,284.92 831.93,314.82 929.39,314.82 929.39,360.76 970.36,360.76 970.36,284.92 
		831.93,284.92 	" />
    <!-- local estacionamento-3 -->
    <polygon class="st26 local estacionamento-3" points="977.58,284.92 977.58,360.61 1116.97,360.61 1116.97,284.92 977.58,284.92 	" />
    <polyline class="st8" points="983.85,434.84 1065.59,434.84 1065.59,898.2 	" />
    <path class="st7" d="M1047.28,309.35c7.4,0,13.41,6,13.41,13.41c0,7.41-6.01,13.42-13.41,13.42c-7.41,0-13.42-6.01-13.42-13.42
		C1033.86,315.36,1039.86,309.35,1047.28,309.35L1047.28,309.35z" />
    <polygon class="st27" points="1042.17,329.38 1042.17,315.75 1052.26,315.75 1052.26,318.05 1044.93,318.05 1044.93,321.08 
		1051.75,321.08 1051.75,323.38 1044.93,323.38 1044.93,327.07 1052.52,327.07 1052.52,329.38 1042.17,329.38 	" />
    <path class="st28" d="M1047.28,309.35c7.4,0,13.41,6,13.41,13.41c0,7.41-6.01,13.42-13.41,13.42c-7.41,0-13.42-6.01-13.42-13.42
		C1033.86,315.36,1039.86,309.35,1047.28,309.35L1047.28,309.35z M1047.28,311.94c5.97,0,10.82,4.85,10.82,10.82
		c0,5.98-4.84,10.82-10.82,10.82c-5.98,0-10.83-4.85-10.83-10.82C1036.45,316.79,1041.3,311.94,1047.28,311.94L1047.28,311.94z" />
    <polygon class="st9 local local-3" points="924.17,425.47 924.17,386.68 975.94,386.68 975.94,425.47 924.17,425.47 	" />
    <text transform="matrix(1 0 0 1 943.9805 416.8604)" class="st18 st19 st20">3</text>
    <!-- local estacionamento-11 -->
    <polygon class="st24 local estacionamento-11" points="1335.59,56.21 1335.59,101.19 1455.5,101.19 1455.5,56.21 1335.59,56.21 	" />
    <line class="st8" x1="1129.17" y1="378.11" x2="1129.17" y2="895.77" />
    <polygon class="st2" points="603.01,502.27 603.01,379.39 632.36,379.25 632.36,502.27 712.42,502.27 694.71,564.2 603.01,564.2 
		603.01,502.27 	" />
    <polygon class="st2" points="712.84,647.71 761.45,470.01 778.02,470.02 778.02,647.71 712.84,647.71 	" />
    <polygon class="st29 local local-12" points="912.04,751.14 1007.48,751.14 1007.48,795.24 912.04,795.24 912.04,751.14 	" />
    <polygon class="st21 local local-10" points="749.55,694.96 938.02,694.96 938.02,739.06 749.55,739.06 749.55,694.96 	" />
    <polygon class="st29 local local-11" points="802.71,751.14 898.15,751.14 898.15,795.24 802.71,795.24 802.71,751.14 	" />
    <text transform="matrix(1 0 0 1 944.876 784.5781)" class="st18 st19 st20">12</text>
    <text transform="matrix(1 0 0 1 828.8877 728.0576)" class="st18 st19 st20">10</text>
    <text transform="matrix(1 0 0 1 837.7188 784.5781)" class="st18 st19 st20 st30">11</text>
    <polyline class="st8" points="782.69,453.81 885.54,453.81 885.54,435.49 	" />
    <polygon class="st2" points="603.01,597.55 687.57,597.55 657.79,698.78 603.01,698.78 603.01,597.55 	" />
    <polygon class="st9 local local-anexo-2" points="512.72,366.34 600.92,366.34 600.92,567.5 620.86,567.5 620.86,510.12 664.35,510.12 664.35,651.47 
		620.86,651.47 620.86,599.52 600.92,599.52 600.92,691.94 512.72,691.94 512.72,366.34 	" />
    <text transform="matrix(4.000000e-05 -1 1 4.000000e-05 571.7393 618.2297)" class="st19 st20">Anexo 2</text>
    <text transform="matrix(4.000000e-05 -1 1 4.000000e-05 569.7408 616.2335)" class="st18 st19 st20">Anexo 2</text>
    <polygon class="st2" points="1116.66,797.69 1081.83,797.69 1081.83,885.69 1116.66,885.69 1116.66,797.69 	" />
    <polygon class="st2" points="1004.88,579.95 988.35,579.95 988.35,628.89 1004.88,628.89 1004.88,579.95 	" />
    <polygon class="st2" points="1038.01,645.04 1036.83,645.04 1036.83,579.95 1020.3,579.95 1020.3,645.04 988.35,645.04 
		988.35,677.4 1038.01,677.4 1038.01,645.04 	" />
    <polygon class="st2" points="1381.81,816.47 1352.37,816.47 1352.37,868.7 1381.81,868.7 1381.81,816.47 	" />
    <polygon class="st2" points="198.63,824.14 172.56,824.14 172.56,543.7 198.63,543.7 198.63,824.14 	" />
    <path class="st2" d="M1144.87,746.02h-2.81h-6.21v100.63h9.02v-22.48l19,0.8l-0.28-35.23l283.75-0.59v-43.13H1144.87
		L1144.87,746.02z M1135.85,855.04v34h4.51h4.51v-34H1135.85L1135.85,855.04z" />
    <polygon class="st2" points="1179.86,379.19 1138.27,379.19 1138.27,695.62 1179.86,695.62 1179.86,379.19 	" />
    <polygon class="st31" points="1548.47,385.64 1548.47,686.87 1197.28,686.87 1197.28,385.64 1548.47,385.64 	" />
    <polygon class="st32" points="1286.59,399.26 1531.82,399.26 1531.82,670.22 1286.59,670.22 1286.59,399.26 	" />
    <!-- local estacionamento-1 -->
    <path class="st33 local estacionamento-1" d="M695.19,394.74v93.63c-61.2,0-16.85,0-78.05,0v-93.63C689.69,394.74,622.65,394.74,695.19,394.74
		L695.19,394.74z" />
    <path class="st9 local local-1" d="M704.43,421.02v43.19c-16.88,0-6.86,0-23.74,0v-43.19C700.7,421.02,684.42,421.02,704.43,421.02L704.43,421.02
		z" />
    <text transform="matrix(1 0 0 1 686.2441 456.4033)" class="st18 st19 st35">1</text>
    <!-- local estacionamento-9 -->
    <polygon class="st24 local estacionamento-9" points="1302.95,708.27 1302.95,743.22 1444.97,743.22 1444.97,708.27 1302.95,708.27 	" />
    <polygon class="st9 local local-18" points="1372.77,749.24 1441.02,749.24 1441.02,784.39 1372.77,784.39 1372.77,749.24 	" />
    <text transform="matrix(1 0 0 1 1391.9443 778.0166)" class="st18 st19 st20">18</text>
    <polygon class="st9 local local-17" points="1168.24,749.24 1361.72,749.24 1361.72,789.58 1168.24,789.58 1168.24,749.24 	" />
    <text transform="matrix(1 0 0 1 1250.0459 780.7988)" class="st18 st19 st20">17</text>
    <polygon class="st29 local local-16" points="1210.56,817.16 1351.71,817.16 1351.71,869.03 1210.56,869.03 1210.56,817.16 	" />
    <polygon class="st36" points="352.27,453.86 352.27,548.11 339.4,548.11 339.4,453.86 242.08,453.86 242.08,443.63 393.39,443.63 
		393.39,453.86 352.27,453.86 	" />
    <text transform="matrix(1 0 0 1 1266.0889 854.2861)" class="st18 st19 st20">16</text>
    <line class="st8" x1="1145.52" y1="718.7" x2="1127.42" y2="718.7" />
    <!-- local estacionamento-8 -->
    <polygon class="st24 local estacionamento-8" points="1142.3,708.27 1142.3,743.22 1284.31,743.22 1284.31,708.27 1142.3,708.27 	" />
    <path class="st8" d="M238.02,166.69V549.1 M398.47,166.69V549.1" />
    <polygon class="st37" points="249.89,723.15 382.43,723.15 382.43,888.97 249.89,888.97 249.89,723.15 	" />
    <polygon class="st37" points="201.02,437.95 229.43,437.95 229.43,547.13 201.02,547.13 201.02,437.95 	" />
    <polygon class="st37" points="407.12,437.95 435.53,437.95 435.53,547.13 407.12,547.13 407.12,437.95 	" />
    <path class="st37" d="M243.36,434.61l0.56-25.62c4.95,0.56,13.52,0.04,23.4,7.1c9.87,7.06,27.35,11.56,35.51-6.96
		c8.15-18.51,25.63-21.96,46.37-8.08c20.75,13.88,32.24,12.2,42.34,12.95v20.61H243.36L243.36,434.61z" />
    <polygon class="st38" points="1382.93,134.28 1325.91,134.28 1325.91,180.36 1341.24,196.78 1341.24,210.31 1367.33,210.31 
		1367.33,197.06 1382.93,180.36 1382.93,134.28 	" />
    <line class="st8" x1="1336.79" y1="76.46" x2="1310.74" y2="76.46" />
    <path class="st37" d="M353.49,547.23v-88.75c18.97,2.06-3.51,37.66,30.44,72.09c2.86,2.9,6.9,12.66,6.9,16.67H353.49L353.49,547.23
		z M338.2,547.23h-93.36c0-28.24,36.73-14.17,61.09-47.03c9.96-13.43,16.75-40.53,32.27-40.53V547.23L338.2,547.23z" />
    <polygon class="st39" points="337.01,453.18 346.58,453.18 346.58,547.79 333.63,548.23 337.01,453.18 	" />
    <polygon class="st36" points="341.12,671.35 356.95,671.35 356.95,726.3 341.12,726.3 341.12,671.35 	" />
    <path class="st36 local local-congresso" d="M352.27,453.86v94.47h97.64l-17.59,15.99c0,31.97,0,63.94,0,95.92l17.59,15.99h-109.8h-1.19H172.39
		l17.59-15.99v-95.92l-17.59-15.99h166.54h0.48v-94.47H352.27L352.27,453.86z" />
    <line class="st8" x1="398.1" y1="440.16" x2="234.13" y2="440.16" />
    <text transform="matrix(1 0 0 1 867.4355 353.1074)" class="st18 st19 st20">2</text>
    <path class="st21 local local-senado" d="M373.33,584.45c16.98-0.37,31.05,13.1,31.42,30.08c0.37,16.98-13.1,31.05-30.08,31.41
		c-16.98,0.37-31.04-13.09-31.41-30.08C342.88,598.88,356.35,584.82,373.33,584.45L373.33,584.45z" />
    <!-- local local-camara -->
    <path class="st40" d="M257.27,580.3c20.89-0.45,38.2,16.12,38.65,37.01c0.45,20.89-16.11,38.19-37.01,38.64
		c-20.89,0.45-38.19-16.11-38.64-37.01C219.81,598.06,236.38,580.76,257.27,580.3L257.27,580.3z" />
    <polygon class="st41" points="243.36,733.18 316.32,733.18 316.32,738.63 243.36,738.63 243.36,733.18 	" />
    <polygon class="st42" points="374.26,733.18 389.3,733.18 389.3,737.08 374.26,737.08 374.26,733.18 	" />
    <polygon class="st36" points="351.41,692.93 374.21,692.93 374.21,769.58 351.41,769.58 349.06,737.74 340.36,737.74 
		338.02,769.58 315.22,769.58 315.22,692.93 338.02,692.93 340.4,725.31 349.02,725.31 351.41,692.93 	" />
    <polygon class="st9 local local-anexo-1-senado" points="349.02,725.31 351.41,692.93 374.21,692.93 374.21,769.58 351.41,769.58 349.06,737.74 349.02,725.31 
			" />
    <!-- local local-anexo-1-camara -->
    <polygon class="st40" points="340.36,737.74 338.02,769.58 315.22,769.58 315.22,692.93 338.02,692.93 340.4,725.31 340.36,737.74 
			" />
    <!-- SETAS DE DIRECIONAMENTO DO TRÂNSITO -->
    <polygon class="st1" points="688.84,923.19 694.03,938.94 695.48,935.23 704.11,948.68 705.79,947.6 697.16,934.14 701.14,934.38 
		688.84,923.19 	" />
    <polygon class="st43" points="817.91,901.35 805.63,898.07 807.4,900.56 795.14,900.46 795.13,901.99 807.39,902.1 805.57,904.55 
		817.91,901.35 	" />
    <polygon class="st43" points="818.48,896.32 830.78,899.55 829,897.07 841.26,897.14 841.27,895.6 829,895.54 830.81,893.08 
		818.48,896.32 	" />
    <polygon class="st43" points="1119.25,901.35 1106.97,898.07 1108.75,900.56 1096.48,900.46 1096.47,901.99 1108.73,902.1 
		1106.92,904.55 1119.25,901.35 	" />
    <polygon class="st43" points="1119.82,896.32 1132.13,899.55 1130.34,897.07 1142.6,897.14 1142.61,895.6 1130.34,895.54 
		1132.15,893.08 1119.82,896.32 	" />
    <polygon class="st44" points="1397.96,901.35 1385.67,898.07 1387.45,900.56 1375.19,900.46 1375.17,901.99 1387.44,902.1 
		1385.62,904.55 1397.96,901.35 	" />
    <polygon class="st44" points="1398.53,896.32 1410.82,899.55 1409.04,897.07 1421.3,897.14 1421.31,895.6 1409.05,895.54 
		1410.86,893.08 1398.53,896.32 	" />
    <polygon class="st44" points="1514.57,802.71 1511.31,814.92 1513.78,813.15 1513.68,825.34 1515.2,825.36 1515.31,813.17 
		1517.75,814.97 1514.57,802.71 	" />
    <polygon class="st44" points="1509.56,802.15 1512.78,789.92 1510.31,791.7 1510.38,779.51 1508.86,779.51 1508.79,791.69 
		1506.34,789.89 1509.56,802.15 	" />
    <polygon class="st43" points="1063.62,584.77 1066.9,572.49 1064.41,574.26 1064.52,562 1062.98,561.99 1062.88,574.25 
		1060.42,572.43 1063.62,584.77 	" />
    <polygon class="st43" points="1068.66,585.34 1065.42,597.64 1067.9,595.86 1067.83,608.12 1069.37,608.12 1069.43,595.86 
		1071.9,597.67 1068.66,585.34 	" />
    <polygon class="st1" points="1309.05,203.97 1312.32,191.68 1309.84,193.46 1309.95,181.2 1308.41,181.19 1308.3,193.45 
		1305.84,191.63 1309.05,203.97 	" />
    <polygon class="st1" points="1314.08,204.54 1310.85,216.84 1313.33,215.05 1313.26,227.31 1314.8,227.32 1314.86,215.06 
		1317.33,216.87 1314.08,204.54 	" />
    <polygon class="st44" points="1398.53,808.37 1410.82,811.61 1409.04,809.12 1421.3,809.19 1421.31,807.66 1409.05,807.59 
		1410.86,805.13 1398.53,808.37 	" />
    <polygon class="st44" points="1468.12,720 1480.42,723.24 1478.64,720.75 1490.9,720.82 1490.91,719.29 1478.65,719.22 
		1480.46,716.76 1468.12,720 	" />
    <polygon class="st44" points="1454.58,771.93 1457.82,759.63 1455.34,761.42 1455.4,749.15 1453.87,749.15 1453.81,761.41 
		1451.34,759.6 1454.58,771.93 	" />
    <polygon class="st43" points="1228.04,808.37 1240.33,811.61 1238.55,809.12 1250.81,809.19 1250.82,807.66 1238.56,807.59 
		1240.37,805.13 1228.04,808.37 	" />
    <polygon class="st43" points="1199.67,874.15 1202.91,861.85 1200.42,863.64 1200.49,851.38 1198.96,851.37 1198.89,863.63 
		1196.43,861.82 1199.67,874.15 	" />
    <polygon class="st1" points="686.88,936.61 682.96,920.5 681.23,924.09 673.69,909.99 671.93,910.93 679.46,925.03 675.52,924.48 
		686.88,936.61 	" />
    <polygon class="st1" points="646.08,790.6 654.87,776.55 651.09,777.81 655.92,762.57 654.02,761.96 649.19,777.21 646.82,774 
		646.08,790.6 	" />
    <polygon class="st1" points="658.02,782.98 649.18,797.01 652.96,795.76 648.08,810.98 649.98,811.59 654.87,796.37 657.22,799.59 
		658.02,782.98 	" />
    <polygon class="st1" points="720.32,521.49 729.11,507.44 725.33,508.7 730.16,493.46 728.26,492.86 723.42,508.09 721.06,504.88 
		720.32,521.49 	" />
    <polygon class="st1" points="732.26,513.87 723.42,527.89 727.2,526.65 722.31,541.87 724.22,542.48 729.11,527.26 731.46,530.48 
		732.26,513.87 	" />
    <polygon class="st1" points="773.68,334.74 782.47,320.68 778.69,321.94 783.52,306.7 781.61,306.1 776.78,321.34 774.42,318.13 
		773.68,334.74 	" />
    <polygon class="st1" points="785.62,327.12 776.78,341.14 780.56,339.9 775.68,355.12 777.58,355.73 782.47,340.5 784.82,343.72 
		785.62,327.12 	" />
    <polygon class="st1" points="783.57,72.38 787.64,56.31 784.43,58.67 784.37,42.68 782.37,42.69 782.43,58.68 779.2,56.35 
		783.57,72.38 	" />
    <polygon class="st1" points="792.61,61.48 788.48,77.53 791.7,75.19 791.7,91.18 793.7,91.18 793.7,75.19 796.92,77.53 
		792.61,61.48 	" />
    <polygon class="st43" points="923.18,812.48 935.47,815.72 933.69,813.24 945.95,813.3 945.96,811.77 933.7,811.7 935.5,809.24 
		923.18,812.48 	" />
    <polygon class="st43" points="690.14,853.19 690.33,840.56 688.36,842.87 685.5,831.02 684.02,831.39 686.88,843.23 684.07,842.07 
		690.14,853.19 	" />
    <polygon class="st43" points="815.57,878.65 803.3,875.35 805.07,877.84 792.81,877.72 792.79,879.25 805.06,879.37 803.23,881.83 
		815.57,878.65 	" />
    <polygon class="st43" points="973.12,564.66 976.4,552.38 973.91,554.15 974.02,541.89 972.49,541.88 972.38,554.14 969.92,552.32 
		973.12,564.66 	" />
    <polygon class="st43" points="978.16,565.23 974.92,577.53 977.41,575.75 977.34,588.01 978.88,588.01 978.94,575.75 981.4,577.56 
		978.16,565.23 	" />
    <polygon class="st43" points="997.58,397.79 1000.86,385.51 998.38,387.28 998.48,375.02 996.95,375.01 996.84,387.27 
		994.39,385.45 997.58,397.79 	" />
    <polygon class="st43" points="1002.62,398.36 999.38,410.66 1001.86,408.88 1001.8,421.14 1003.34,421.14 1003.4,408.88 
		1005.86,410.7 1002.62,398.36 	" />
    <polygon class="st43" points="934.64,431.96 946.92,435.23 945.15,432.75 957.41,432.85 957.42,431.32 945.16,431.21 
		946.98,428.76 934.64,431.96 	" />
    <polygon class="st43" points="934.07,436.99 921.77,433.76 923.56,436.24 911.29,436.17 911.28,437.71 923.55,437.77 
		921.74,440.24 934.07,436.99 	" />
    <polygon class="st43" points="835.71,435.22 848,438.5 846.23,436.01 858.49,436.12 858.5,434.58 846.24,434.48 848.06,432.02 
		835.71,435.22 	" />
    <polygon class="st43" points="835.14,453.3 822.85,450.06 824.64,452.54 812.37,452.48 812.37,454.01 824.62,454.08 822.81,456.54 
		835.14,453.3 	" />
    <polygon class="st43" points="786.96,526.07 790.24,513.79 787.75,515.56 787.85,503.3 786.32,503.29 786.21,515.55 783.76,513.73 
		786.96,526.07 	" />
    <polygon class="st43" points="792,526.64 788.76,538.94 791.24,537.15 791.18,549.41 792.71,549.42 792.77,537.16 795.24,538.97 
		792,526.64 	" />
    <polygon class="st43" points="714.42,733.07 719.92,721.6 717.14,722.89 719.52,710.86 718.01,710.56 715.64,722.59 713.56,720.35 
		714.42,733.07 	" />
    <polygon class="st43" points="719.26,734.56 713.8,746.04 716.58,744.75 714.24,756.79 715.75,757.08 718.08,745.04 720.16,747.28 
		719.26,734.56 	" />
    <polygon class="st1" points="896.86,99.71 912.94,103.74 910.58,100.53 926.57,100.42 926.55,98.42 910.56,98.53 912.88,95.29 
		896.86,99.71 	" />
    <polygon class="st1" points="907.8,108.72 891.73,104.64 894.08,107.85 878.1,107.91 878.1,109.91 894.09,109.86 891.76,113.09 
		907.8,108.72 	" />
    <polygon class="st1" points="1198.85,39.63 1182.78,35.55 1185.13,38.76 1169.14,38.81 1169.15,40.81 1185.14,40.76 1182.81,43.99 
		1198.85,39.63 	" />
    <polygon class="st1" points="1496.04,39.63 1479.98,35.55 1482.33,38.76 1466.34,38.81 1466.35,40.81 1482.34,40.76 1480,43.99 
		1496.04,39.63 	" />
    <path class="st7" d="M1381.53,494.12h66.82c5.35,0,9.72,4.38,9.72,9.72v67.35c0,5.34-4.38,9.72-9.72,9.72h-66.82
		c-5.35,0-9.72-4.38-9.72-9.72v-67.35C1371.81,498.5,1376.18,494.12,1381.53,494.12L1381.53,494.12z" />
    <text transform="matrix(1 0 0 1 1383.333 572.4727)" class="st4 st19 st45 st46">CEB</text>
    <polygon class="st47" points="1409.77,518.08 1413.56,504.19 1426.82,504.19 1418.61,515.24 1423.66,515.24 1417.45,525.99 
		1422.08,525.99 1412.61,543.98 1415.13,528.82 1410.4,528.82 1416.08,518.08 1409.77,518.08 	" />
    <path class="st48" d="M1382.67,492.42h63.83c3.64,0,6.96,1.49,9.36,3.89c2.4,2.4,3.9,5.72,3.9,9.36v63.84
		c0,3.64-1.49,6.96-3.9,9.36c-2.4,2.4-5.71,3.89-9.36,3.89h-63.83c-3.65,0-6.96-1.49-9.36-3.89c-2.4-2.4-3.89-5.72-3.89-9.36v-63.84
		c0-3.64,1.49-6.96,3.89-9.36C1375.71,493.91,1379.02,492.42,1382.67,492.42L1382.67,492.42z M1446.5,496.19h-63.83
		c-2.61,0-4.98,1.07-6.7,2.79c-1.72,1.72-2.79,4.09-2.79,6.69v63.84c0,2.6,1.07,4.97,2.79,6.69c1.72,1.72,4.09,2.79,6.7,2.79h63.83
		c2.6,0,4.98-1.07,6.7-2.79c1.72-1.72,2.79-4.09,2.79-6.69v-63.84c0-2.6-1.07-4.98-2.79-6.69
		C1451.48,497.25,1449.11,496.19,1446.5,496.19L1446.5,496.19z" />
    <path class="st9 local local-15" d="M1143.22,887.97v-59.94h44.1v59.94H1143.22L1143.22,887.97z M1149.78,812.07c3.54,0,6.41,2.87,6.41,6.41
		c0,3.55-2.87,6.41-6.41,6.41c-3.54,0-6.41-2.87-6.41-6.41C1143.37,814.94,1146.24,812.07,1149.78,812.07L1149.78,812.07z" />
    <text transform="matrix(1 0 0 1 1150.1436 868.2578)" class="st18 st19 st20">15</text>
    <!-- local estacionamento-4 -->
    <polygon class="st26 local estacionamento-4" points="1133.11,520.12 1168.06,520.12 1168.06,378.11 1133.11,378.11 1133.11,520.12 	" />
    <line class="st8" x1="703.71" y1="874.34" x2="695.1" y2="899.05" />
    <polygon class="st29 local local-13" points="1013.16,749.44 1013.16,684.28 1055.58,684.28 1055.58,749.44 1013.16,749.44 	" />
    <text transform="matrix(1.0651 0 0 1 1018.4414 728.0576)" class="st18 st19 st20">13</text>
    <polygon class="st43" points="1046.98,838.37 1043.73,850.57 1046.2,848.81 1046.09,860.99 1047.62,861 1047.72,848.82 
		1050.17,850.63 1046.98,838.37 	" />
    <path class="st7" d="M948.65,292.27c7.41,0,13.41,6.01,13.41,13.41c0,7.41-6.01,13.41-13.41,13.41c-7.41,0-13.42-6.01-13.42-13.41
		C935.23,298.28,941.24,292.27,948.65,292.27L948.65,292.27z" />
    <polygon class="st27" points="943.54,312.3 943.54,298.67 953.63,298.67 953.63,300.97 946.3,300.97 946.3,304 953.12,304 
		953.12,306.3 946.3,306.3 946.3,309.99 953.9,309.99 953.9,312.3 943.54,312.3 	" />
    <path class="st28" d="M948.65,292.27c7.41,0,13.41,6.01,13.41,13.41c0,7.41-6.01,13.41-13.41,13.41c-7.41,0-13.42-6.01-13.42-13.41
		C935.23,298.28,941.24,292.27,948.65,292.27L948.65,292.27z M948.65,294.86c5.98,0,10.82,4.85,10.82,10.82
		c0,5.98-4.84,10.82-10.82,10.82c-5.98,0-10.83-4.85-10.83-10.82C937.82,299.71,942.67,294.86,948.65,294.86L948.65,294.86z" />
    <path class="st7" d="M1150.27,430.43c7.41,0,13.41,6.01,13.41,13.41c0,7.41-6,13.41-13.41,13.41c-7.41,0-13.42-6-13.42-13.41
		C1136.85,436.44,1142.86,430.43,1150.27,430.43L1150.27,430.43z" />
    <polygon class="st27" points="1145.16,450.46 1145.16,436.83 1155.26,436.83 1155.26,439.13 1147.92,439.13 1147.92,442.16 
		1154.74,442.16 1154.74,444.46 1147.92,444.46 1147.92,448.16 1155.52,448.16 1155.52,450.46 1145.16,450.46 	" />
    <path class="st28" d="M1150.27,430.43c7.41,0,13.41,6.01,13.41,13.41c0,7.41-6,13.41-13.41,13.41c-7.41,0-13.42-6-13.42-13.41
		C1136.85,436.44,1142.86,430.43,1150.27,430.43L1150.27,430.43z M1150.27,433.02c5.98,0,10.82,4.85,10.82,10.82
		c0,5.98-4.84,10.82-10.82,10.82c-5.97,0-10.82-4.84-10.82-10.82C1139.44,437.87,1144.29,433.02,1150.27,433.02L1150.27,433.02z" />
    <path class="st7" d="M1216.79,712.33c7.41,0,13.42,6.01,13.42,13.41c0,7.41-6,13.42-13.42,13.42c-7.41,0-13.41-6.01-13.41-13.42
		C1203.38,718.34,1209.38,712.33,1216.79,712.33L1216.79,712.33z" />
    <polygon class="st27" points="1211.69,732.36 1211.69,718.73 1221.78,718.73 1221.78,721.04 1214.44,721.04 1214.44,724.06 
		1221.26,724.06 1221.26,726.36 1214.44,726.36 1214.44,730.05 1222.04,730.05 1222.04,732.36 1211.69,732.36 	" />
    <path class="st28" d="M1216.79,712.33c7.41,0,13.42,6.01,13.42,13.41c0,7.41-6,13.42-13.42,13.42c-7.41,0-13.41-6.01-13.41-13.42
		C1203.38,718.34,1209.38,712.33,1216.79,712.33L1216.79,712.33z M1216.79,714.92c5.98,0,10.82,4.84,10.82,10.82
		c0,5.98-4.84,10.83-10.82,10.83c-5.97,0-10.82-4.85-10.82-10.83C1205.97,719.77,1210.82,714.92,1216.79,714.92L1216.79,714.92z" />
    <path class="st7" d="M1370.95,712.33c7.41,0,13.41,6.01,13.41,13.41c0,7.41-6,13.42-13.41,13.42c-7.41,0-13.42-6.01-13.42-13.42
		C1357.53,718.34,1363.54,712.33,1370.95,712.33L1370.95,712.33z" />
    <polygon class="st27" points="1365.84,732.36 1365.84,718.73 1375.93,718.73 1375.93,721.04 1368.6,721.04 1368.6,724.06 
		1375.41,724.06 1375.41,726.36 1368.6,726.36 1368.6,730.05 1376.2,730.05 1376.2,732.36 1365.84,732.36 	" />
    <path class="st28" d="M1370.95,712.33c7.41,0,13.41,6.01,13.41,13.41c0,7.41-6,13.42-13.41,13.42c-7.41,0-13.42-6.01-13.42-13.42
		C1357.53,718.34,1363.54,712.33,1370.95,712.33L1370.95,712.33z M1370.95,714.92c5.97,0,10.82,4.84,10.82,10.82
		c0,5.98-4.84,10.83-10.82,10.83c-5.98,0-10.82-4.85-10.82-10.83C1360.12,719.77,1364.97,714.92,1370.95,714.92L1370.95,714.92z" />
    <path class="st7" d="M1395.55,62.29c9.07,0,16.41,7.35,16.41,16.41c0,9.06-7.35,16.41-16.41,16.41c-9.06,0-16.41-7.35-16.41-16.41
		C1379.14,69.64,1386.49,62.29,1395.55,62.29L1395.55,62.29z" />
    <polygon class="st27" points="1389.3,86.79 1389.3,70.12 1401.65,70.12 1401.65,72.93 1392.68,72.93 1392.68,76.64 1401.02,76.64 
		1401.02,79.45 1392.68,79.45 1392.68,83.97 1401.98,83.97 1401.98,86.79 1389.3,86.79 	" />
    <path class="st28" d="M1395.55,62.29c9.07,0,16.41,7.35,16.41,16.41c0,9.06-7.35,16.41-16.41,16.41c-9.06,0-16.41-7.35-16.41-16.41
		C1379.14,69.64,1386.49,62.29,1395.55,62.29L1395.55,62.29z M1395.55,65.46c7.32,0,13.24,5.93,13.24,13.24
		c0,7.31-5.93,13.24-13.24,13.24c-7.31,0-13.24-5.93-13.24-13.24C1382.31,71.39,1388.24,65.46,1395.55,65.46L1395.55,65.46z" />
    <path class="st7" d="M1446.55,839.53c7.41,0,13.41,6.01,13.41,13.42c0,7.41-6,13.41-13.41,13.41c-7.41,0-13.42-6-13.42-13.41
		C1433.13,845.53,1439.14,839.53,1446.55,839.53L1446.55,839.53z" />
    <polygon class="st27" points="1441.45,859.56 1441.45,845.92 1451.54,845.92 1451.54,848.23 1444.21,848.23 1444.21,851.25 
		1451.02,851.25 1451.02,853.56 1444.21,853.56 1444.21,857.25 1451.8,857.25 1451.8,859.56 1441.45,859.56 	" />
    <path class="st28" d="M1446.55,839.53c7.41,0,13.41,6.01,13.41,13.42c0,7.41-6,13.41-13.41,13.41c-7.41,0-13.42-6-13.42-13.41
		C1433.13,845.53,1439.14,839.53,1446.55,839.53L1446.55,839.53z M1446.55,842.12c5.98,0,10.82,4.84,10.82,10.82
		c0,5.97-4.84,10.82-10.82,10.82c-5.97,0-10.82-4.85-10.82-10.82C1435.73,846.96,1440.58,842.12,1446.55,842.12L1446.55,842.12z" />
    <path class="st7" d="M863.16,828.25c9.06,0,16.41,7.35,16.41,16.41c0,9.06-7.35,16.41-16.41,16.41c-9.07,0-16.41-7.35-16.41-16.41
		C846.75,835.6,854.09,828.25,863.16,828.25L863.16,828.25z" />
    <polygon class="st27" points="856.91,852.75 856.91,836.07 869.25,836.07 869.25,838.89 860.29,838.89 860.29,842.6 868.62,842.6 
		868.62,845.41 860.29,845.41 860.29,849.93 869.58,849.93 869.58,852.75 856.91,852.75 	" />
    <path class="st28" d="M863.16,828.25c9.06,0,16.41,7.35,16.41,16.41c0,9.06-7.35,16.41-16.41,16.41c-9.07,0-16.41-7.35-16.41-16.41
		C846.75,835.6,854.09,828.25,863.16,828.25L863.16,828.25z M863.16,831.42c7.31,0,13.24,5.92,13.24,13.24
		c0,7.31-5.93,13.24-13.24,13.24c-7.31,0-13.24-5.93-13.24-13.24C849.92,837.34,855.85,831.42,863.16,831.42L863.16,831.42z" />
    <path class="st7" d="M755.48,748.15c9.06,0,16.41,7.35,16.41,16.41c0,9.07-7.35,16.41-16.41,16.41c-9.06,0-16.41-7.35-16.41-16.41
		C739.07,755.5,746.41,748.15,755.48,748.15L755.48,748.15z" />
    <polygon class="st27" points="749.23,772.65 749.23,755.98 761.57,755.98 761.57,758.79 752.61,758.79 752.61,762.5 760.95,762.5 
		760.95,765.31 752.61,765.31 752.61,769.83 761.9,769.83 761.9,772.65 749.23,772.65 	" />
    <path class="st28" d="M755.48,748.15c9.06,0,16.41,7.35,16.41,16.41c0,9.07-7.35,16.41-16.41,16.41c-9.06,0-16.41-7.35-16.41-16.41
		C739.07,755.5,746.41,748.15,755.48,748.15L755.48,748.15z M755.48,751.32c7.31,0,13.24,5.93,13.24,13.24
		c0,7.31-5.93,13.24-13.24,13.24c-7.31,0-13.24-5.93-13.24-13.24C742.23,757.25,748.17,751.32,755.48,751.32L755.48,751.32z" />
    <path class="st7" d="M409.96,770.15c9.07,0,16.41,7.35,16.41,16.41c0,9.06-7.34,16.41-16.41,16.41c-9.06,0-16.41-7.35-16.41-16.41
		C393.55,777.5,400.9,770.15,409.96,770.15L409.96,770.15z" />
    <polygon class="st27" points="403.71,794.66 403.71,777.98 416.06,777.98 416.06,780.8 407.09,780.8 407.09,784.5 415.43,784.5 
		415.43,787.32 407.09,787.32 407.09,791.84 416.38,791.84 416.38,794.66 403.71,794.66 	" />
    <path class="st28" d="M409.96,770.15c9.07,0,16.41,7.35,16.41,16.41c0,9.06-7.34,16.41-16.41,16.41c-9.06,0-16.41-7.35-16.41-16.41
		C393.55,777.5,400.9,770.15,409.96,770.15L409.96,770.15z M409.96,773.32c7.31,0,13.24,5.93,13.24,13.24
		c0,7.31-5.93,13.24-13.24,13.24c-7.31,0-13.24-5.93-13.24-13.24C396.72,779.25,402.65,773.32,409.96,773.32L409.96,773.32z" />
    <path class="st7" d="M656.11,423.69c9.07,0,16.41,7.35,16.41,16.41c0,9.07-7.34,16.41-16.41,16.41c-9.06,0-16.41-7.35-16.41-16.41
		C639.7,431.04,647.04,423.69,656.11,423.69L656.11,423.69z" />
    <polygon class="st27" points="649.86,448.2 649.86,431.52 662.21,431.52 662.21,434.34 653.24,434.34 653.24,438.04 661.58,438.04 
		661.58,440.86 653.24,440.86 653.24,445.38 662.53,445.38 662.53,448.2 649.86,448.2 	" />
    <path class="st28" d="M656.11,423.69c9.07,0,16.41,7.35,16.41,16.41c0,9.07-7.34,16.41-16.41,16.41c-9.06,0-16.41-7.35-16.41-16.41
		C639.7,431.04,647.04,423.69,656.11,423.69L656.11,423.69z M656.11,426.86c7.32,0,13.24,5.93,13.24,13.24
		c0,7.31-5.92,13.24-13.24,13.24c-7.31,0-13.24-5.93-13.24-13.24C642.87,432.79,648.8,426.86,656.11,426.86L656.11,426.86z" />
    <line class="st8" x1="469.1" y1="164.67" x2="143.17" y2="164.67" />
    <path class="st7" d="M1522.63,652.66L1522.63,652.66c10.57,0,19.22,8.65,19.22,19.22l0,0c0,10.57-8.65,19.22-19.22,19.22l0,0
		c-10.57,0-19.22-8.65-19.22-19.22l0,0C1503.41,661.31,1512.06,652.66,1522.63,652.66L1522.63,652.66z" />
    <g>
      <defs>
        <path id="SVGID_1_" d="M1522.63,652.66L1522.63,652.66c10.57,0,19.22,8.65,19.22,19.22l0,0c0,10.57-8.65,19.22-19.22,19.22l0,0
				c-10.57,0-19.22-8.65-19.22-19.22l0,0C1503.41,661.31,1512.06,652.66,1522.63,652.66L1522.63,652.66z" />
      </defs>
      <clipPath id="SVGID_00000031205169835923672390000013681566008348973447_">
        <use xlink:href="#SVGID_1_" style="overflow:visible;" />
      </clipPath>

      <path style="clip-path:url(#SVGID_00000031205169835923672390000013681566008348973447_);fill-rule:evenodd;clip-rule:evenodd;" d="
			M1522.55,677.25l1.39,11.51l-1.61,1.87l-1.61-1.87l1.39-11.51l-1.13-1.95l1.34-0.69l1.35,0.69L1522.55,677.25L1522.55,677.25z
			 M1512.24,691.36h20.18c1.1,0,1.9-0.91,2.01-2.02l1.13-10.76c0.12-1.1-0.96-2.77-2.01-3.1c-7.74-2.36-14.7-2.36-22.44,0
			c-1.06,0.33-2.13,2-2.01,3.1l1.13,10.76C1510.34,690.44,1511.13,691.36,1512.24,691.36L1512.24,691.36z M1528.67,665.39
			c0.13,0.6,0.18,1.23,0.13,1.87c-0.26,3.59-3.37,6.28-6.95,6.02c-3.59-0.26-6.28-3.37-6.03-6.96c0.02-0.32,0.07-0.63,0.14-0.93
			H1528.67L1528.67,665.39z M1528.67,665.39c-1.15,3.42-11.6,3.3-12.71,0H1528.67L1528.67,665.39z M1515.96,665.39h12.73
			c0.02-0.78,0.04-1.56,0.06-2.33c-6.94-1.84-5.81-1.87-12.74,0L1515.96,665.39L1515.96,665.39z M1514.42,660.83
			c8.43-2.61,7.38-2.58,15.81,0c0.02-0.78-1.5,2.41-1.48,1.64c-6.94-1.84-5.81-1.86-12.74,0
			C1515.48,661.93,1514.96,661.38,1514.42,660.83L1514.42,660.83z" />
    </g>
    <path class="st50" d="M1522.63,652.66L1522.63,652.66c10.57,0,19.22,8.65,19.22,19.22l0,0c0,10.57-8.65,19.22-19.22,19.22l0,0
		c-10.57,0-19.22-8.65-19.22-19.22l0,0C1503.41,661.31,1512.06,652.66,1522.63,652.66L1522.63,652.66z" />
    <line class="st51" x1="1530.47" y1="690.59" x2="1545.87" y2="718.67" />
    <path class="st52" d="M1552.33,715.12c1.95,3.55,0.65,8.04-2.92,10c-3.56,1.95-8.05,0.64-10-2.92c-1.95-3.55-0.65-8.04,2.92-10
		C1545.89,710.26,1550.38,711.57,1552.33,715.12L1552.33,715.12z" />
    <path class="st7" d="M733.55,909.95L733.55,909.95c10.57,0,19.22,8.65,19.22,19.22l0,0c0,10.57-8.65,19.22-19.22,19.22l0,0
		c-10.57,0-19.22-8.65-19.22-19.22l0,0C714.33,918.6,722.98,909.95,733.55,909.95L733.55,909.95z" />
    <g>
      <defs>
        <path id="SVGID_00000116233232229052741190000002458853624003500428_" d="M733.55,909.95L733.55,909.95
				c10.57,0,19.22,8.65,19.22,19.22l0,0c0,10.57-8.65,19.22-19.22,19.22l0,0c-10.57,0-19.22-8.65-19.22-19.22l0,0
				C714.33,918.6,722.98,909.95,733.55,909.95L733.55,909.95z" />
      </defs>
      <clipPath id="SVGID_00000086680819113834870870000018099936671528680889_">
        <use xlink:href="#SVGID_00000116233232229052741190000002458853624003500428_" style="overflow:visible;" />
      </clipPath>

      <path style="clip-path:url(#SVGID_00000086680819113834870870000018099936671528680889_);fill-rule:evenodd;clip-rule:evenodd;" d="
			M733.47,934.54l1.38,11.51l-1.6,1.86l-1.61-1.86l1.39-11.51l-1.13-1.95l1.35-0.69l1.34,0.69L733.47,934.54L733.47,934.54z
			 M723.16,948.65h20.18c1.11,0,1.9-0.91,2.01-2.02l1.13-10.75c0.12-1.1-0.96-2.77-2.02-3.1c-7.74-2.37-14.7-2.37-22.43,0
			c-1.06,0.32-2.14,1.99-2.02,3.1l1.12,10.75C721.26,947.74,722.05,948.65,723.16,948.65L723.16,948.65z M739.59,922.69
			c0.13,0.6,0.18,1.23,0.13,1.87c-0.26,3.59-3.38,6.28-6.96,6.02c-3.58-0.26-6.28-3.38-6.02-6.96c0.02-0.32,0.07-0.63,0.14-0.93
			H739.59L739.59,922.69z M739.59,922.69c-1.16,3.42-11.6,3.3-12.71,0H739.59L739.59,922.69z M726.88,922.69h12.74
			c0.02-0.78,0.04-1.56,0.06-2.33c-6.94-1.84-5.81-1.87-12.74,0L726.88,922.69L726.88,922.69z M725.34,918.13
			c8.44-2.61,7.38-2.58,15.82,0c0.02-0.78-1.5,2.41-1.48,1.63c-6.94-1.84-5.81-1.87-12.74,0
			C726.41,919.22,725.88,918.67,725.34,918.13L725.34,918.13z" />
    </g>
    <path class="st50" d="M733.55,909.95L733.55,909.95c10.57,0,19.22,8.65,19.22,19.22l0,0c0,10.57-8.65,19.22-19.22,19.22l0,0
		c-10.57,0-19.22-8.65-19.22-19.22l0,0C714.33,918.6,722.98,909.95,733.55,909.95L733.55,909.95z" />
    <line class="st51" x1="718.67" y1="915.68" x2="696.32" y2="898.12" />
    <path class="st52" d="M691.77,903.91c-3.19-2.51-3.76-7.15-1.24-10.34c2.51-3.2,7.15-3.75,10.35-1.24
		c3.19,2.5,3.75,7.15,1.24,10.34C699.6,905.87,694.96,906.42,691.77,903.91L691.77,903.91z" />
    <path class="st7" d="M662.25,557.54L662.25,557.54c10.57,0,19.22,8.65,19.22,19.22l0,0c0,10.57-8.65,19.22-19.22,19.22l0,0
		c-10.57,0-19.22-8.65-19.22-19.22l0,0C643.03,566.19,651.67,557.54,662.25,557.54L662.25,557.54z" />
    <g>
      <defs>
        <path id="SVGID_00000081637779252098068450000014145746978063584917_" d="M662.25,557.54L662.25,557.54
				c10.57,0,19.22,8.65,19.22,19.22l0,0c0,10.57-8.65,19.22-19.22,19.22l0,0c-10.57,0-19.22-8.65-19.22-19.22l0,0
				C643.03,566.19,651.67,557.54,662.25,557.54L662.25,557.54z" />
      </defs>
      <clipPath id="SVGID_00000175314463783505435130000014647024034380499125_">
        <use xlink:href="#SVGID_00000081637779252098068450000014145746978063584917_" style="overflow:visible;" />
      </clipPath>

      <path style="clip-path:url(#SVGID_00000175314463783505435130000014647024034380499125_);fill-rule:evenodd;clip-rule:evenodd;" d="
			M662.16,582.13l1.39,11.51l-1.61,1.86l-1.61-1.86l1.39-11.51l-1.12-1.96l1.34-0.69l1.35,0.69L662.16,582.13L662.16,582.13z
			 M651.86,596.23h20.18c1.11,0,1.9-0.91,2.02-2.01l1.13-10.76c0.12-1.1-0.96-2.77-2.01-3.09c-7.74-2.36-14.7-2.36-22.44,0
			c-1.06,0.32-2.13,1.99-2.02,3.09l1.13,10.76C649.95,595.32,650.75,596.23,651.86,596.23L651.86,596.23z M668.28,570.27
			c0.13,0.6,0.18,1.23,0.14,1.87c-0.26,3.59-3.37,6.28-6.96,6.02c-3.59-0.26-6.28-3.37-6.02-6.96c0.03-0.32,0.07-0.63,0.13-0.93
			H668.28L668.28,570.27z M668.28,570.27c-1.15,3.42-11.6,3.3-12.71,0H668.28L668.28,570.27z M655.57,570.27h12.74
			c0.02-0.78,0.04-1.55,0.06-2.33c-6.94-1.84-5.8-1.87-12.74,0L655.57,570.27L655.57,570.27z M654.04,565.72
			c8.43-2.61,7.38-2.58,15.81,0c0.02-0.78-1.5,2.41-1.48,1.63c-6.94-1.84-5.8-1.87-12.74,0
			C655.1,566.81,654.57,566.26,654.04,565.72L654.04,565.72z" />
    </g>
    <path class="st50" d="M662.25,557.54L662.25,557.54c10.57,0,19.22,8.65,19.22,19.22l0,0c0,10.57-8.65,19.22-19.22,19.22l0,0
		c-10.57,0-19.22-8.65-19.22-19.22l0,0C643.03,566.19,651.67,557.54,662.25,557.54L662.25,557.54z" />
    <path class="st7" d="M717.36,379.8L717.36,379.8c10.57,0,19.22,8.65,19.22,19.22l0,0c0,10.57-8.65,19.22-19.22,19.22l0,0
		c-10.57,0-19.22-8.65-19.22-19.22l0,0C698.14,388.45,706.78,379.8,717.36,379.8L717.36,379.8z" />
    <g>
      <defs>
        <path id="SVGID_00000009592412512387692920000015994850349052367768_" d="M717.36,379.8L717.36,379.8
				c10.57,0,19.22,8.65,19.22,19.22l0,0c0,10.57-8.65,19.22-19.22,19.22l0,0c-10.57,0-19.22-8.65-19.22-19.22l0,0
				C698.14,388.45,706.78,379.8,717.36,379.8L717.36,379.8z" />
      </defs>
      <clipPath id="SVGID_00000077313270500258747130000002243047653155937958_">
        <use xlink:href="#SVGID_00000009592412512387692920000015994850349052367768_" style="overflow:visible;" />
      </clipPath>

      <path style="clip-path:url(#SVGID_00000077313270500258747130000002243047653155937958_);fill-rule:evenodd;clip-rule:evenodd;" d="
			M717.28,404.4l1.38,11.5l-1.6,1.87l-1.61-1.87l1.38-11.5l-1.12-1.96l1.35-0.69l1.34,0.69L717.28,404.4L717.28,404.4z
			 M706.97,418.5h20.18c1.11,0,1.9-0.91,2.02-2.01l1.13-10.76c0.11-1.1-0.96-2.77-2.02-3.1c-7.74-2.36-14.7-2.36-22.44,0
			c-1.06,0.32-2.13,1.99-2.01,3.1l1.13,10.76C705.07,417.58,705.86,418.5,706.97,418.5L706.97,418.5z M723.4,392.53
			c0.13,0.6,0.18,1.23,0.13,1.87c-0.26,3.58-3.37,6.28-6.96,6.02c-3.58-0.26-6.28-3.38-6.02-6.96c0.02-0.32,0.07-0.63,0.13-0.93
			H723.4L723.4,392.53z M723.4,392.53c-1.15,3.42-11.6,3.3-12.71,0H723.4L723.4,392.53z M710.68,392.53h12.74
			c0.02-0.78,0.04-1.56,0.06-2.33c-6.94-1.84-5.8-1.87-12.74,0L710.68,392.53L710.68,392.53z M709.14,387.98
			c8.43-2.61,7.38-2.58,15.82,0c0.02-0.77-1.5,2.41-1.48,1.64c-6.94-1.84-5.8-1.87-12.74,0
			C710.21,389.07,709.68,388.52,709.14,387.98L709.14,387.98z" />
    </g>
    <path class="st50" d="M717.36,379.8L717.36,379.8c10.57,0,19.22,8.65,19.22,19.22l0,0c0,10.57-8.65,19.22-19.22,19.22l0,0
		c-10.57,0-19.22-8.65-19.22-19.22l0,0C698.14,388.45,706.78,379.8,717.36,379.8L717.36,379.8z" />
    <line class="st51" x1="717.36" y1="419.16" x2="717.36" y2="445.14" />
    <path class="st52" d="M724.73,445.14c0,4.06-3.3,7.38-7.38,7.38c-4.07,0-7.37-3.32-7.37-7.38c0-4.06,3.31-7.38,7.37-7.38
		C721.43,437.76,724.73,441.08,724.73,445.14L724.73,445.14z" />
    <path class="st7" d="M795.59,379.64L795.59,379.64c10.57,0,19.22,8.65,19.22,19.22l0,0c0,10.57-8.65,19.22-19.22,19.22l0,0
		c-10.57,0-19.22-8.65-19.22-19.22l0,0C776.38,388.29,785.03,379.64,795.59,379.64L795.59,379.64z" />
    <g>
      <defs>
        <path id="SVGID_00000058579519334736967890000012389778330719554212_" d="M795.59,379.64L795.59,379.64
				c10.57,0,19.22,8.65,19.22,19.22l0,0c0,10.57-8.65,19.22-19.22,19.22l0,0c-10.57,0-19.22-8.65-19.22-19.22l0,0
				C776.38,388.29,785.03,379.64,795.59,379.64L795.59,379.64z" />
      </defs>
      <clipPath id="SVGID_00000164513083265428277000000005529658489057774996_">
        <use xlink:href="#SVGID_00000058579519334736967890000012389778330719554212_" style="overflow:visible;" />
      </clipPath>

      <path style="clip-path:url(#SVGID_00000164513083265428277000000005529658489057774996_);fill-rule:evenodd;clip-rule:evenodd;" d="
			M795.52,404.24l1.38,11.51l-1.6,1.87l-1.61-1.87l1.38-11.51l-1.12-1.95l1.35-0.69l1.34,0.69L795.52,404.24L795.52,404.24z
			 M785.21,418.34h20.18c1.11,0,1.9-0.91,2.01-2.02l1.13-10.76c0.12-1.1-0.96-2.77-2.01-3.1c-7.74-2.36-14.7-2.36-22.44,0
			c-1.06,0.32-2.13,1.99-2.01,3.1l1.12,10.76C783.31,417.42,784.1,418.34,785.21,418.34L785.21,418.34z M801.64,392.38
			c0.13,0.6,0.18,1.23,0.14,1.87c-0.26,3.59-3.38,6.28-6.96,6.02c-3.58-0.26-6.28-3.37-6.02-6.96c0.02-0.32,0.07-0.63,0.13-0.93
			H801.64L801.64,392.38z M801.64,392.38c-1.15,3.42-11.6,3.3-12.71,0H801.64L801.64,392.38z M788.92,392.38h12.73
			c0.02-0.78,0.04-1.55,0.06-2.33c-6.94-1.84-5.81-1.87-12.73,0L788.92,392.38L788.92,392.38z M787.39,387.82
			c8.43-2.61,7.38-2.58,15.81,0c0.02-0.77-1.5,2.41-1.48,1.64c-6.94-1.84-5.81-1.87-12.73,0
			C788.45,388.91,787.92,388.37,787.39,387.82L787.39,387.82z" />
    </g>
    <path class="st50" d="M795.59,379.64L795.59,379.64c10.57,0,19.22,8.65,19.22,19.22l0,0c0,10.57-8.65,19.22-19.22,19.22l0,0
		c-10.57,0-19.22-8.65-19.22-19.22l0,0C776.38,388.29,785.03,379.64,795.59,379.64L795.59,379.64z" />
    <line class="st51" x1="795.59" y1="418.56" x2="790.02" y2="444.98" />
    <path class="st52" d="M797.21,446.5c-0.84,3.96-4.74,6.52-8.72,5.68c-3.97-0.84-6.51-4.76-5.68-8.72c0.84-3.96,4.74-6.52,8.72-5.68
		C795.51,438.63,798.05,442.54,797.21,446.5L797.21,446.5z" />
    <path class="st59" d="M769.57,434.79c4.99,0,9.03,4.04,9.03,9.04c0,4.99-4.04,9.04-9.03,9.04c-4.99,0-9.04-4.05-9.04-9.04
		C760.54,438.83,764.58,434.79,769.57,434.79L769.57,434.79z" />
    <path class="st7" d="M272.44,470.44L272.44,470.44c10.57,0,19.22,8.65,19.22,19.22v0c0,10.57-8.65,19.22-19.22,19.22l0,0
		c-10.57,0-19.22-8.65-19.22-19.22v0C253.23,479.09,261.88,470.44,272.44,470.44L272.44,470.44z" />
    <g>
      <defs>
        <path id="SVGID_00000111158197626103583460000010566869623558641543_" d="M272.44,470.44L272.44,470.44
				c10.57,0,19.22,8.65,19.22,19.22v0c0,10.57-8.65,19.22-19.22,19.22l0,0c-10.57,0-19.22-8.65-19.22-19.22v0
				C253.23,479.09,261.88,470.44,272.44,470.44L272.44,470.44z" />
      </defs>
      <clipPath id="SVGID_00000129187639013416704040000001208905512146139066_">
        <use xlink:href="#SVGID_00000111158197626103583460000010566869623558641543_" style="overflow:visible;" />
      </clipPath>

      <path style="clip-path:url(#SVGID_00000129187639013416704040000001208905512146139066_);fill-rule:evenodd;clip-rule:evenodd;" d="
			M272.36,495.03l1.39,11.51l-1.61,1.87l-1.61-1.87l1.39-11.51l-1.12-1.95l1.34-0.69l1.35,0.69L272.36,495.03L272.36,495.03z
			 M262.05,509.14h20.18c1.11,0,1.91-0.91,2.02-2.01l1.13-10.76c0.12-1.1-0.96-2.77-2.02-3.09c-7.74-2.37-14.7-2.37-22.43,0
			c-1.06,0.32-2.13,1.99-2.02,3.09l1.13,10.76C260.16,508.22,260.95,509.14,262.05,509.14L262.05,509.14z M278.48,483.18
			c0.13,0.6,0.18,1.23,0.14,1.87c-0.26,3.58-3.38,6.28-6.96,6.02c-3.59-0.26-6.28-3.38-6.02-6.96c0.03-0.32,0.07-0.63,0.14-0.93
			H278.48L278.48,483.18z M278.48,483.18c-1.15,3.42-11.6,3.3-12.71,0H278.48L278.48,483.18z M265.77,483.18h12.74
			c0.02-0.78,0.04-1.56,0.06-2.33c-6.94-1.84-5.81-1.87-12.74,0L265.77,483.18L265.77,483.18z M264.23,478.62
			c8.44-2.61,7.38-2.58,15.81,0c0.02-0.78-1.5,2.41-1.48,1.63c-6.94-1.83-5.81-1.86-12.74,0
			C265.3,479.71,264.77,479.16,264.23,478.62L264.23,478.62z" />
    </g>
    <path class="st50" d="M272.44,470.44L272.44,470.44c10.57,0,19.22,8.65,19.22,19.22v0c0,10.57-8.65,19.22-19.22,19.22l0,0
		c-10.57,0-19.22-8.65-19.22-19.22v0C253.23,479.09,261.88,470.44,272.44,470.44L272.44,470.44z" />
    <line class="st51" x1="287.63" y1="503.76" x2="332.48" y2="541.28" />
    <path class="st52" d="M337.21,535.63c3.11,2.6,3.53,7.26,0.92,10.37c-2.61,3.12-7.26,3.52-10.37,0.92
		c-3.11-2.6-3.53-7.26-0.92-10.37C329.44,533.43,334.1,533.03,337.21,535.63L337.21,535.63z" />
    <path class="st7" d="M1353.41,100.67L1353.41,100.67c10.57,0,19.22,8.65,19.22,19.22l0,0c0,10.57-8.65,19.22-19.22,19.22l0,0
		c-10.57,0-19.22-8.65-19.22-19.22l0,0C1334.19,109.32,1342.84,100.67,1353.41,100.67L1353.41,100.67z" />
    <g>
      <defs>
        <path id="SVGID_00000093891850520430489230000009580447421545760446_" d="M1353.41,100.67L1353.41,100.67
				c10.57,0,19.22,8.65,19.22,19.22l0,0c0,10.57-8.65,19.22-19.22,19.22l0,0c-10.57,0-19.22-8.65-19.22-19.22l0,0
				C1334.19,109.32,1342.84,100.67,1353.41,100.67L1353.41,100.67z" />
      </defs>
      <clipPath id="SVGID_00000045607091881826069860000015268827370487595157_">
        <use xlink:href="#SVGID_00000093891850520430489230000009580447421545760446_" style="overflow:visible;" />
      </clipPath>

      <path style="clip-path:url(#SVGID_00000045607091881826069860000015268827370487595157_);fill-rule:evenodd;clip-rule:evenodd;" d="
			M1353.33,125.26l1.38,11.51l-1.61,1.87l-1.61-1.87l1.39-11.51l-1.13-1.96l1.35-0.69l1.34,0.69L1353.33,125.26L1353.33,125.26z
			 M1343.02,139.36h20.18c1.11,0,1.9-0.91,2.02-2.01l1.13-10.76c0.11-1.1-0.96-2.78-2.02-3.1c-7.74-2.36-14.7-2.36-22.43,0
			c-1.06,0.32-2.14,2-2.02,3.1l1.13,10.76C1341.12,138.45,1341.91,139.36,1343.02,139.36L1343.02,139.36z M1359.45,113.4
			c0.13,0.6,0.18,1.23,0.13,1.87c-0.26,3.58-3.38,6.28-6.96,6.02c-3.58-0.26-6.28-3.38-6.02-6.96c0.03-0.32,0.07-0.63,0.14-0.93
			H1359.45L1359.45,113.4z M1359.45,113.4c-1.15,3.42-11.6,3.3-12.71,0H1359.45L1359.45,113.4z M1346.74,113.4h12.74
			c0.03-0.78,0.04-1.56,0.06-2.33c-6.94-1.84-5.81-1.87-12.74,0L1346.74,113.4L1346.74,113.4z M1345.2,108.85
			c8.43-2.61,7.38-2.58,15.81,0c0.03-0.78-1.49,2.41-1.47,1.64c-6.94-1.84-5.81-1.87-12.74,0
			C1346.26,109.94,1345.73,109.39,1345.2,108.85L1345.2,108.85z" />
    </g>
    <path class="st50" d="M1353.41,100.67L1353.41,100.67c10.57,0,19.22,8.65,19.22,19.22l0,0c0,10.57-8.65,19.22-19.22,19.22l0,0
		c-10.57,0-19.22-8.65-19.22-19.22l0,0C1334.19,109.32,1342.84,100.67,1353.41,100.67L1353.41,100.67z" />
    <line class="st51" x1="1339.67" y1="99.56" x2="1322.2" y2="83.27" />
    <path class="st52" d="M1317.19,88.66c-2.96-2.76-3.14-7.43-0.37-10.4c2.77-2.97,7.44-3.13,10.4-0.37c2.96,2.76,3.14,7.43,0.37,10.4
		C1324.82,91.26,1320.15,91.42,1317.19,88.66L1317.19,88.66z" />
    <path class="st3" d="M439.53,35.44v54.85c-183.33,0-74.46,0-257.78,0V35.44C399.05,35.44,222.23,35.44,439.53,35.44L439.53,35.44z" />
    <text transform="matrix(1 0 0 1 216.2685 70.5)" class="st4 st5 st6">Rodoviária / Torre de TV</text>
    <polygon class="st62" points="310.44,102.52 301.15,124.53 308.39,121.32 308.39,143.23 312.89,143.23 312.89,121.32 
		320.13,124.53 310.44,102.52 	" />
    <polygon class="st63" points="861.05,528.29 861.05,512.41 874.43,512.41 874.43,528.29 861.05,528.29 	" />
    <polygon class="st63" points="926.97,528.29 926.97,512.41 940.34,512.41 940.34,528.29 926.97,528.29 	" />
    <polygon class="st63" points="836.72,590.37 836.72,574.49 850.11,574.49 850.11,590.37 836.72,590.37 	" />
    <polygon class="st63" points="893.68,590.37 893.68,574.49 907.06,574.49 907.06,590.37 893.68,590.37 	" />
    <text transform="matrix(1 0 0 1 1489.0518 356.0176)" class="st18 st19 st20">21</text>
    <line class="st55" x1="324.29" y1="634.1" x2="291.7" y2="702.16" />
    <polygon class="st62" points="115.48,43.43 166.52,43.43 166.52,961.58 115.48,961.58 115.48,43.43 	" />
    <polygon class="st1" points="139.73,215.55 131.78,184.68 137.98,189.19 137.98,158.45 141.83,158.45 141.83,189.19 148.02,184.68 
		139.73,215.55 	" />
    <polygon class="st1" points="139.73,510.85 131.78,479.99 137.98,484.49 137.98,453.76 141.83,453.76 141.83,484.49 148.02,479.99 
		139.73,510.85 	" />
    <polygon class="st1" points="139.73,806.16 131.78,775.3 137.98,779.8 137.98,749.07 141.83,749.07 141.83,779.8 148.02,775.3 
		139.73,806.16 	" />
    <polygon class="st64" points="454.85,43.43 505.89,43.43 505.89,961.58 454.85,961.58 454.85,43.43 	" />
    <polygon class="st1" points="483.78,749.07 475.82,779.93 482.02,775.42 482.02,806.16 485.87,806.16 485.87,775.42 492.06,779.93 
		483.78,749.07 	" />
    <polygon class="st1" points="483.78,453.76 475.82,484.62 482.02,480.11 482.02,510.85 485.87,510.85 485.87,480.11 492.06,484.62 
		483.78,453.76 	" />
    <polygon class="st1" points="483.78,158.45 475.82,189.32 482.02,184.81 482.02,215.55 485.87,215.55 485.87,184.81 492.06,189.32 
		483.78,158.45 	" />
    <path class="st7" d="M408.88,827.32L408.88,827.32c10.57,0,19.22,8.65,19.22,19.22l0,0c0,10.57-8.65,19.21-19.22,19.21h0
		c-10.57,0-19.21-8.65-19.21-19.21l0,0C389.66,835.96,398.31,827.32,408.88,827.32L408.88,827.32z" />
    <g>
      <defs>
        <path id="SVGID_00000025427407834896811490000014264734442654148240_" d="M408.88,827.32L408.88,827.32
				c10.57,0,19.22,8.65,19.22,19.22l0,0c0,10.57-8.65,19.21-19.22,19.21h0c-10.57,0-19.21-8.65-19.21-19.21l0,0
				C389.66,835.96,398.31,827.32,408.88,827.32L408.88,827.32z" />
      </defs>
      <clipPath id="SVGID_00000112618863585696249980000009390317018871260069_">
        <use xlink:href="#SVGID_00000025427407834896811490000014264734442654148240_" style="overflow:visible;" />
      </clipPath>

      <path style="clip-path:url(#SVGID_00000112618863585696249980000009390317018871260069_);fill-rule:evenodd;clip-rule:evenodd;" d="
			M408.8,851.91l1.39,11.51l-1.61,1.87l-1.61-1.87l1.39-11.51l-1.12-1.95l1.34-0.69l1.35,0.69L408.8,851.91L408.8,851.91z
			 M398.49,866.01h20.18c1.11,0,1.9-0.91,2.02-2.02l1.13-10.75c0.12-1.1-0.96-2.77-2.02-3.09c-7.74-2.37-14.7-2.37-22.44,0
			c-1.06,0.32-2.13,1.99-2.02,3.09l1.13,10.75C396.59,865.09,397.38,866.01,398.49,866.01L398.49,866.01z M414.92,840.04
			c0.13,0.6,0.18,1.23,0.13,1.88c-0.26,3.58-3.37,6.28-6.96,6.02c-3.58-0.26-6.28-3.38-6.02-6.96c0.02-0.32,0.07-0.63,0.13-0.93
			H414.92L414.92,840.04z M414.92,840.04c-1.15,3.42-11.6,3.3-12.71,0H414.92L414.92,840.04z M402.21,840.04h12.74
			c0.02-0.78,0.04-1.55,0.06-2.33c-6.94-1.83-5.81-1.87-12.74,0L402.21,840.04L402.21,840.04z M400.67,835.49
			c8.43-2.61,7.38-2.58,15.81,0c0.02-0.78-1.5,2.41-1.48,1.64c-6.94-1.84-5.81-1.87-12.74,0
			C401.74,836.58,401.2,836.03,400.67,835.49L400.67,835.49z" />
    </g>
    <path class="st50" d="M408.88,827.32L408.88,827.32c10.57,0,19.22,8.65,19.22,19.22l0,0c0,10.57-8.65,19.21-19.22,19.21h0
		c-10.57,0-19.21-8.65-19.21-19.21l0,0C389.66,835.96,398.31,827.32,408.88,827.32L408.88,827.32z" />
    <line class="st51" x1="423.82" y1="832.92" x2="442.6" y2="813.5" />
    <path class="st52" d="M437.31,808.39c2.81-2.91,7.48-2.99,10.4-0.18c2.92,2.83,2.99,7.49,0.17,10.4c-2.81,2.91-7.48,3-10.4,0.18
		C434.57,815.97,434.5,811.3,437.31,808.39L437.31,808.39z" />
    <path class="st7" d="M1234.41,951.42c11.65,0,21.1,9.45,21.1,21.1c0,11.65-9.45,21.1-21.1,21.1c-11.65,0-21.1-9.45-21.1-21.1
		C1213.31,960.87,1222.75,951.42,1234.41,951.42L1234.41,951.42z" />
    <polygon class="st27" points="1226.38,982.92 1226.38,961.48 1242.24,961.48 1242.24,965.11 1230.72,965.11 1230.72,969.87 
		1241.44,969.87 1241.44,973.49 1230.72,973.49 1230.72,979.3 1242.67,979.3 1242.67,982.92 1226.38,982.92 	" />
    <path class="st28" d="M1234.41,951.42c11.65,0,21.1,9.45,21.1,21.1c0,11.65-9.45,21.1-21.1,21.1c-11.65,0-21.1-9.45-21.1-21.1
		C1213.31,960.87,1222.75,951.42,1234.41,951.42L1234.41,951.42z M1234.41,955.5c9.4,0,17.02,7.62,17.02,17.02
		s-7.62,17.02-17.02,17.02c-9.41,0-17.03-7.62-17.03-17.02S1225,955.5,1234.41,955.5L1234.41,955.5z" />
    <polygon class="st9" points="778.83,957.91 809.14,957.91 809.14,987.13 778.83,987.13 778.83,957.91 	" />
    <path class="st7" d="M1045.3,953.31L1045.3,953.31c10.57,0,19.22,8.65,19.22,19.22l0,0c0,10.57-8.65,19.22-19.22,19.22h-0.01
		c-10.57,0-19.21-8.65-19.21-19.22l0,0C1026.09,961.95,1034.74,953.31,1045.3,953.31L1045.3,953.31z" />
    <g>
      <defs>
        <path id="SVGID_00000085250903074594792180000014943446902775745982_" d="M1045.3,953.31L1045.3,953.31
				c10.57,0,19.22,8.65,19.22,19.22l0,0c0,10.57-8.65,19.22-19.22,19.22h-0.01c-10.57,0-19.21-8.65-19.21-19.22l0,0
				C1026.09,961.95,1034.74,953.31,1045.3,953.31L1045.3,953.31z" />
      </defs>
      <clipPath id="SVGID_00000154386554267367563430000015655609809370532532_">
        <use xlink:href="#SVGID_00000085250903074594792180000014943446902775745982_" style="overflow:visible;" />
      </clipPath>

      <path style="clip-path:url(#SVGID_00000154386554267367563430000015655609809370532532_);fill-rule:evenodd;clip-rule:evenodd;" d="
			M1045.22,977.9l1.39,11.51l-1.61,1.87l-1.61-1.87l1.38-11.51l-1.12-1.96l1.34-0.69l1.35,0.69L1045.22,977.9L1045.22,977.9z
			 M1034.92,992h20.18c1.11,0,1.9-0.92,2.02-2.02l1.13-10.76c0.12-1.1-0.96-2.77-2.02-3.1c-7.74-2.36-14.69-2.36-22.43,0
			c-1.06,0.33-2.13,2-2.02,3.1l1.13,10.76C1033.02,991.08,1033.81,992,1034.92,992L1034.92,992z M1051.35,966.04
			c0.13,0.6,0.18,1.23,0.13,1.88c-0.26,3.58-3.37,6.28-6.96,6.02c-3.58-0.26-6.28-3.38-6.02-6.96c0.02-0.32,0.07-0.63,0.14-0.93
			H1051.35L1051.35,966.04z M1051.35,966.04c-1.15,3.42-11.6,3.3-12.71,0H1051.35L1051.35,966.04z M1038.64,966.04h12.74
			c0.02-0.78,0.04-1.55,0.06-2.33c-6.94-1.84-5.8-1.87-12.73,0L1038.64,966.04L1038.64,966.04z M1037.1,961.48
			c8.43-2.61,7.38-2.58,15.81,0c0.02-0.77-1.5,2.42-1.48,1.64c-6.94-1.83-5.8-1.87-12.73,0
			C1038.16,962.57,1037.63,962.02,1037.1,961.48L1037.1,961.48z" />
    </g>
    <path class="st50" d="M1045.3,953.31L1045.3,953.31c10.57,0,19.22,8.65,19.22,19.22l0,0c0,10.57-8.65,19.22-19.22,19.22h-0.01
		c-10.57,0-19.21-8.65-19.21-19.22l0,0C1026.09,961.95,1034.74,953.31,1045.3,953.31L1045.3,953.31z" />
    <text transform="matrix(4.000000e-05 -1 1 4.000000e-05 795.8094 197.5081)" class="st19 st6">V</text>
    <text transform="matrix(4.000000e-05 -1 1 4.000000e-05 795.8098 186.2376)" class="st19 st6">ia N</text>
    <text transform="matrix(4.000000e-05 -1 1 4.000000e-05 795.8111 154.3993)" class="st19 st6">2</text>
    <text transform="matrix(4.000000e-05 -1 1 4.000000e-05 794.8153 196.0066)" class="st18 st19 st6">V</text>
    <text transform="matrix(4.000000e-05 -1 1 4.000000e-05 794.8157 184.7342)" class="st18 st19 st6">ia N2</text>
    <text transform="matrix(0.286 -0.9582 0.9582 0.286 754.2379 446.6311)" class="st19 st67">V</text>
    <text transform="matrix(0.286 -0.9582 0.9582 0.286 757.4676 435.818)" class="st19 st67">ia N2</text>
    <text transform="matrix(0.286 -0.9582 0.9582 0.286 753.6833 444.9037)" class="st18 st19 st67">V</text>
    <text transform="matrix(0.286 -0.9582 0.9582 0.286 756.9455 434.0983)" class="st18 st19 st67">ia N2</text>
    <text transform="matrix(0.286 -0.9582 0.9582 0.286 670.8656 747.6274)" class="st19 st67">V</text>
    <text transform="matrix(0.286 -0.9582 0.9582 0.286 674.0751 736.8276)" class="st19 st67">ia N2</text>
    <text transform="matrix(0.286 -0.9582 0.9582 0.286 670.3356 745.9207)" class="st18 st19 st67">V</text>
    <text transform="matrix(0.286 -0.9582 0.9582 0.286 673.5529 735.1221)" class="st18 st19 st67">ia N2</text>
    <text transform="matrix(4.000000e-05 -1 1 4.000000e-05 485.6694 338.9943)" class="st19 st68">V</text>
    <text transform="matrix(4.000000e-05 -1 1 4.000000e-05 485.67 324.4542)" class="st19 st68">ia N1</text>
    <text transform="matrix(4.000000e-05 -1 1 4.000000e-05 150.7578 338.8417)" class="st19 st68">V</text>
    <text transform="matrix(4.000000e-05 -1 1 4.000000e-05 150.7584 324.3041)" class="st19 st68">ia S1</text>
    <text transform="matrix(4.000000e-05 -1 1 4.000000e-05 485.6562 669.692)" class="st19 st68">V</text>
    <text transform="matrix(4.000000e-05 -1 1 4.000000e-05 485.6568 655.152)" class="st19 st68">ia N1</text>
    <text transform="matrix(4.000000e-05 -1 1 4.000000e-05 150.7446 669.538)" class="st19 st68">V</text>
    <text transform="matrix(4.000000e-05 -1 1 4.000000e-05 150.7452 654.999)" class="st19 st68">ia S1</text>
    <path class="st3" d="M617.21,900.83v59.93c-74.03,0-30.07,0-104.11,0v-59.93C600.86,900.83,529.45,900.83,617.21,900.83
		L617.21,900.83z" />
    <text transform="matrix(1 0 0 1 524.2803 926.2959)" class="st4 st5 st6">Palácio do Planalto</text>
    <path class="st3" d="M112.04,900.83v59.93c-48.03,0-19.51,0-67.55,0v-59.93C101.43,900.83,55.1,900.83,112.04,900.83L112.04,900.83
		z" />
    <text transform="matrix(1 0 0 1 61.874 943.0244)" class="st4 st5 st6">STF</text>
    <text transform="matrix(1 0 0 1 819.0469 980.1006)" class="st5 st6">Senado Federal</text>
    <text transform="matrix(1 0 0 1 1077.123 979.9756)" class="st5 st6">Entradas</text>
    <text transform="matrix(1 0 0 1 1265.4697 979.9756)" class="st5 st6">Estacionamentos internos</text>
    <polygon class="st1" points="1563.34,886.33 1560.08,898.53 1562.56,896.77 1562.45,908.95 1563.98,908.96 1564.08,896.78 
		1566.52,898.58 1563.34,886.33 	" />
    <polygon class="st1" points="1558.34,885.76 1561.56,873.54 1559.09,875.31 1559.15,863.12 1557.63,863.12 1557.56,875.3 
		1555.11,873.5 1558.34,885.76 	" />
    <polygon class="st1" points="1555.87,150.6 1559.89,134.51 1556.68,136.88 1556.58,120.89 1554.58,120.9 1554.69,136.89 
		1551.45,134.57 1555.87,150.6 	" />
    <polygon class="st1" points="1564.88,139.66 1560.79,155.73 1564.01,153.37 1564.06,169.36 1566.06,169.36 1566.01,153.37 
		1569.25,155.7 1564.88,139.66 	" />
    <polygon class="st1" points="1555.87,493.95 1559.89,477.86 1556.68,480.23 1556.58,464.24 1554.58,464.25 1554.69,480.24 
		1551.45,477.92 1555.87,493.95 	" />
    <polygon class="st1" points="1564.88,483.01 1560.79,499.08 1564.01,496.72 1564.06,512.71 1566.06,512.71 1566.01,496.72 
		1569.25,499.05 1564.88,483.01 	" />
    <line class="st23" x1="1565.04" y1="462.18" x2="1639.29" y2="462.18" />
    <path class="st3" d="M1582.58,229.62h54.85c0,157.95,0,64.15,0,222.1h-54.85C1582.58,264.5,1582.58,416.85,1582.58,229.62
		L1582.58,229.62z" />
    <text transform="matrix(4.000000e-05 -1 1 4.000000e-05 1617.4171 434.4653)" class="st4 st5 st6">Ministério Público Militar</text>
    <path class="st3" d="M1582.58,471.49h54.85c0,95.47,0,38.77,0,134.25h-54.85C1582.58,492.57,1582.58,584.66,1582.58,471.49
		L1582.58,471.49z" />
    <text transform="matrix(4.000000e-05 -1 1 4.000000e-05 1617.3828 582.4126)" class="st4 st5 st6">Embaixada</text>
    <text transform="matrix(4.000000e-05 -1 1 4.000000e-05 484.1548 336.9937)" class="st18 st19 st68">V</text>
    <text transform="matrix(4.000000e-05 -1 1 4.000000e-05 484.1554 322.4566)" class="st18 st19 st68">ia N1</text>
    <text transform="matrix(4.000000e-05 -1 1 4.000000e-05 149.2535 336.846)" class="st18 st19 st68">V</text>
    <text transform="matrix(4.000000e-05 -1 1 4.000000e-05 149.2541 322.3055)" class="st18 st19 st68">ia S1</text>
    <text transform="matrix(4.000000e-05 -1 1 4.000000e-05 484.1416 667.6754)" class="st18 st19 st68">V</text>
    <text transform="matrix(4.000000e-05 -1 1 4.000000e-05 484.1534 653.1509)" class="st18 st19 st68">ia N1</text>
    <text transform="matrix(4.000000e-05 -1 1 4.000000e-05 149.252 667.5272)" class="st18 st19 st68">V</text>
    <text transform="matrix(4.000000e-05 -1 1 4.000000e-05 149.2526 653.0018)" class="st18 st19 st68">ia S1</text>
    <polygon class="st43" points="1131.61,575.82 1128.33,588.11 1130.82,586.33 1130.71,598.59 1132.24,598.6 1132.35,586.34 
		1134.81,588.16 1131.61,575.82 	" />
    <polygon class="st43" points="1126.57,575.25 1129.81,562.95 1127.32,564.74 1127.39,552.48 1125.86,552.47 1125.79,564.73 
		1123.33,562.92 1126.57,575.25 	" />
    <path class="st7" d="M684.16,640.41l2.43,0.65l-2.28,8.52l-2.43-0.65L684.16,640.41L684.16,640.41z M688.44,641.56l2.43,0.65
		l-2.29,8.53l-2.43-0.65L688.44,641.56L688.44,641.56z M692.72,642.71l2.43,0.65l-2.28,8.52l-2.43-0.65L692.72,642.71L692.72,642.71
		z M696.69,643.77l2.43,0.65l-2.28,8.53l-2.43-0.66L696.69,643.77L696.69,643.77z" />
    <path class="st7" d="M731.26,472.12l2.43,0.65l-2.29,8.52l-2.43-0.65L731.26,472.12L731.26,472.12z M735.54,473.26l2.43,0.65
		l-2.28,8.52l-2.43-0.65L735.54,473.26L735.54,473.26z M739.82,474.41l2.43,0.65l-2.29,8.52l-2.43-0.65L739.82,474.41L739.82,474.41
		z M743.79,475.47l2.43,0.65l-2.29,8.53l-2.43-0.65L743.79,475.47L743.79,475.47z" />
    <path class="st7" d="M783.49,577.09h2.52v8.82h-2.52V577.09L783.49,577.09z M787.93,577.09h2.51v8.82h-2.51V577.09L787.93,577.09z
		 M792.36,577.09h2.52v8.82h-2.52V577.09L792.36,577.09z" />
    <text transform="matrix(1 0 0 1 230.9604 571.3428)" class="st69 st70">Congresso Nacional</text>
  </g>
  <polygon class="st9" points="75.4,1040.48 100.92,1040.48 100.92,1065.08 75.4,1065.08 75.4,1040.48 " />
  <polygon class="st9" points="75.34,1087.33 100.87,1087.33 100.87,1111.94 75.34,1111.94 75.34,1087.33 " />
  <polygon class="st9" points="75.34,1134.19 100.87,1134.19 100.87,1158.79 75.34,1158.79 75.34,1134.19 " />
  <rect x="75.59" y="1044.96" class="st71" width="25.13" height="15.64" />
  <text transform="matrix(1 0 0 1 83.6343 1059.165)" class="st18 st19 st72">1</text>
  <rect x="75.59" y="1091.81" class="st71" width="25.13" height="15.64" />
  <text transform="matrix(1 0 0 1 83.6343 1106.0195)" class="st18 st19 st72">2</text>
  <rect x="75.59" y="1138.67" class="st71" width="25.13" height="15.64" />
  <text transform="matrix(1 0 0 1 83.6343 1152.875)" class="st18 st19 st72">3</text>
  <g>
    <rect x="110.66" y="1046.01" class="st73" width="75.26" height="16.37" />
    <text transform="matrix(1 0 0 1 110.6641 1058.1895)" class="st4 st5 st74 local local-1">Prodasen</text>
  </g>
  <g>
    <rect x="110.66" y="1087.34" class="st73" width="164.1" height="35.51" />
    <text transform="matrix(1 0 0 1 110.6641 1099.5127)" class="local local-2">
      <tspan x="0" y="0" class="st4 st5 st74">Primeira Secretaria; ILB; </tspan>
      <tspan x="0" y="18.42" class="st4 st5 st74">Advocacia</tspan>
    </text>
  </g>
  <g>
    <rect x="110.66" y="1140.08" class="st73" width="141.22" height="16.37" />
    <text transform="matrix(1 0 0 1 110.6641 1152.2617)" class="st4 st5 st74 local local-3">Conselho Editorial</text>
  </g>
  <polygon class="st9" points="298,1040.48 323.52,1040.48 323.52,1065.08 298,1065.08 298,1040.48 " />
  <polygon class="st9" points="297.94,1085.92 323.47,1085.92 323.47,1110.52 297.94,1110.52 297.94,1085.92 " />
  <polygon class="st9" points="297.94,1134.19 323.47,1134.19 323.47,1158.79 297.94,1158.79 297.94,1134.19 " />
  <rect x="298.19" y="1044.96" class="st71" width="25.13" height="15.64" />
  <text transform="matrix(1 0 0 1 306.2339 1059.165)" class="st18 st19 st72">4</text>
  <rect x="298.19" y="1090.4" class="st71" width="25.13" height="15.64" />
  <text transform="matrix(1 0 0 1 306.2339 1104.6016)" class="st18 st19 st72">5</text>
  <rect x="298.19" y="1138.67" class="st71" width="25.13" height="15.64" />
  <text transform="matrix(1 0 0 1 306.2339 1152.875)" class="st18 st19 st72">6</text>
  <g>
    <rect x="333.26" y="1046.01" class="st73" width="170.71" height="16.37" />
    <text transform="matrix(1 0 0 1 333.2642 1058.1895)" class="st4 st5 st74 local local-4">SEGRAF; CEF, Sindilegis</text>
  </g>
  <g>
    <rect x="333.26" y="1091.45" class="st73" width="126.12" height="14.59" />
    <text transform="matrix(1 0 0 1 333.2642 1103.6279)" class="st4 st5 st74 local local-5">SEGRAF/ Depósito</text>
  </g>
  <g>
    <rect x="333.26" y="1140.08" class="st73" width="190.82" height="34.62" />
    <text transform="matrix(1 0 0 1 333.2642 1152.2617)" class="st4 st5 st74 local local-6">SEGRAF/ Depósito de papel</text>
  </g>
  <polygon class="st9" points="532.67,1040.48 558.19,1040.48 558.19,1065.08 532.67,1065.08 532.67,1040.48 " />
  <polygon class="st9" points="532.62,1085.92 558.14,1085.92 558.14,1110.52 532.62,1110.52 532.62,1085.92 " />
  <polygon class="st9" points="532.62,1134.19 558.14,1134.19 558.14,1158.79 532.62,1158.79 532.62,1134.19 " />
  <rect x="532.87" y="1044.96" class="st71" width="25.13" height="15.64" />
  <text transform="matrix(1 0 0 1 540.9067 1059.165)" class="st18 st19 st72">7</text>
  <rect x="532.87" y="1090.4" class="st71" width="25.13" height="15.64" />
  <text transform="matrix(1 0 0 1 540.9067 1104.6016)" class="st18 st19 st72">8</text>
  <rect x="532.87" y="1138.67" class="st71" width="25.13" height="15.64" />
  <text transform="matrix(1 0 0 1 540.9067 1152.875)" class="st18 st19 st72">9</text>
  <g>
    <rect x="567.94" y="1043.18" class="st73" width="183.44" height="39.9" />
    <text transform="matrix(1 0 0 1 567.9365 1055.3545)" class="local local-7">
      <tspan x="0" y="0" class="st4 st5 st74">SEGRAF/ SEID; SEIMEL;</tspan>
      <tspan x="0" y="18.42" class="st4 st5 st74">SECPRO; SAUSEP</tspan>
    </text>
  </g>
  <g>
    <rect x="567.94" y="1085.78" class="st73" width="162.05" height="41.6" />
    <text transform="matrix(1 0 0 1 567.9365 1097.957)" class="local local-8">
      <tspan x="0" y="0" class="st4 st5 st74">SEGRAF/ SEPIG; </tspan>
      <tspan x="0" y="18.42" class="st4 st5 st74">SEIMOF; CCQ; COEDIT</tspan>
    </text>
  </g>
  <g>
    <rect x="567.94" y="1134.93" class="st73" width="162.05" height="41.6" />
    <text transform="matrix(1 0 0 1 567.9365 1147.1045)" class="local local-9">
      <tspan x="0" y="0" class="st4 st5 st74">SEGRAF/ SEACAB;</tspan>
      <tspan x="0" y="18.42" class="st4 st5 st74">CORREIOS</tspan>
    </text>
  </g>
  <polygon class="st9" points="764.92,1040.48 790.45,1040.48 790.45,1065.08 764.92,1065.08 764.92,1040.48 " />
  <polygon class="st9" points="764.87,1085.92 790.4,1085.92 790.4,1110.52 764.87,1110.52 764.87,1085.92 " />
  <polygon class="st9" points="764.87,1134.19 790.4,1134.19 790.4,1158.79 764.87,1158.79 764.87,1134.19 " />
  <rect x="765.12" y="1044.96" class="st71" width="25.13" height="15.64" />
  <text transform="matrix(1 0 0 1 768.6377 1059.165)" class="st18 st19 st72">10</text>
  <rect x="765.12" y="1090.4" class="st71" width="25.13" height="15.64" />
  <text transform="matrix(1 0 0 1 768.6377 1104.6016)" class="st18 st19 st72">11</text>
  <rect x="765.12" y="1138.67" class="st71" width="25.13" height="15.64" />
  <text transform="matrix(1 0 0 1 768.6377 1152.875)" class="st18 st19 st72">12</text>
  <g>
    <rect x="800.19" y="1045.26" class="st73" width="168.32" height="16.06" />
    <text transform="matrix(1 0 0 1 800.1914 1057.7422)" class="st4 st5 st75 local local-10">SEGP; DGER; DGRAD</text>
  </g>
  <g>
    <rect x="800.19" y="1087.2" class="st73" width="182.14" height="35.93" />
    <text transform="matrix(1 0 0 1 800.1914 1099.377)" class="local local-11">
      <tspan x="0" y="0" class="st4 st5 st74">SECOM/ Gabinete; COMAP;</tspan>
      <tspan x="0" y="18.42" class="st4 st5 st74">Agência Senado</tspan>
    </text>
  </g>
  <g>
    <rect x="800.19" y="1140.08" class="st73" width="184.32" height="16.37" />
    <text transform="matrix(1 0 0 1 800.1914 1152.2617)" class="st4 st5 st74 local local-12">ILB</text>
  </g>
  <polygon class="st9" points="999.84,1040.48 1025.36,1040.48 1025.36,1065.08 999.84,1065.08 999.84,1040.48 " />
  <polygon class="st9" points="999.78,1085.92 1025.31,1085.92 1025.31,1110.52 999.78,1110.52 999.78,1085.92 " />
  <polygon class="st9" points="999.78,1134.19 1025.31,1134.19 1025.31,1158.79 999.78,1158.79 999.78,1134.19 " />
  <rect x="1000.03" y="1044.96" class="st71" width="25.13" height="15.64" />
  <text transform="matrix(1 0 0 1 1003.5479 1059.165)" class="st18 st19 st72">13</text>
  <rect x="1000.03" y="1090.4" class="st71" width="25.13" height="15.64" />
  <text transform="matrix(1 0 0 1 1003.5479 1104.6016)" class="st18 st19 st72">14</text>
  <rect x="1000.03" y="1138.67" class="st71" width="25.13" height="15.64" />
  <text transform="matrix(1 0 0 1 1003.5479 1152.875)" class="st18 st19 st72">15</text>
  <g>
    <rect x="1035.1" y="1044.6" class="st73" width="121.08" height="16.37" />
    <text transform="matrix(1 0 0 1 1035.1025 1056.7734)" class="st4 st5 st74 local local-13">Telefonia</text>
  </g>
  <g>
    <rect x="1035.1" y="1090.03" class="st73" width="168.89" height="17.29" />
    <text transform="matrix(1 0 0 1 1035.1025 1102.2119)" class="st4 st5 st74 local local-14">SINFRA; COARQ; COBEP </text>
  </g>
  <g>
    <rect x="1035.1" y="1138.67" class="st73" width="127.08" height="17.79" />
    <text transform="matrix(1 0 0 1 1035.1025 1150.8457)" class="st4 st5 st74 local local-15">Espaço do Servidor</text>
  </g>
  <polygon class="st9" points="1236.52,1040.48 1262.04,1040.48 1262.04,1065.08 1236.52,1065.08 1236.52,1040.48 " />
  <polygon class="st9" points="1236.47,1085.92 1261.99,1085.92 1261.99,1110.52 1236.47,1110.52 1236.47,1085.92 " />
  <polygon class="st9" points="1236.47,1134.19 1261.99,1134.19 1261.99,1158.79 1236.47,1158.79 1236.47,1134.19 " />
  <rect x="1236.71" y="1044.96" class="st71" width="25.13" height="15.64" />
  <text transform="matrix(1 0 0 1 1240.2314 1059.165)" class="st18 st19 st72">16</text>
  <rect x="1236.71" y="1090.4" class="st71" width="25.13" height="15.64" />
  <text transform="matrix(1 0 0 1 1240.2314 1104.6016)" class="st18 st19 st72">17</text>
  <rect x="1236.71" y="1138.67" class="st71" width="25.13" height="15.64" />
  <text transform="matrix(1 0 0 1 1240.2314 1152.875)" class="st18 st19 st72">18</text>
  <g>
    <rect x="1271.79" y="1044.6" class="st73" width="143.82" height="16.37" />
    <text transform="matrix(1 0 0 1 1271.7861 1056.7734)" class="st4 st5 st74 local local-16">SPATR; SADCON; BB</text>
  </g>
  <g>
    <rect x="1271.79" y="1090.03" class="st73" width="181.17" height="16.37" />
    <text transform="matrix(1 0 0 1 1271.7861 1102.2119)" class="st4 st5 st74 local local-17">SIS, SAFIN</text>
  </g>
  <g>
    <rect x="1271.79" y="1138.67" class="st73" width="155.67" height="16.37" />
    <text transform="matrix(1 0 0 1 1271.7861 1150.8457)" class="st4 st5 st74 local local-18">Empresas Terceirizadas</text>
  </g>
  <polygon class="st9" points="1470.34,1040.48 1495.87,1040.48 1495.87,1065.08 1470.34,1065.08 1470.34,1040.48 " />
  <polygon class="st9" points="1470.29,1085.92 1495.81,1085.92 1495.81,1110.52 1470.29,1110.52 1470.29,1085.92 " />
  <polygon class="st9" points="1470.29,1134.19 1495.81,1134.19 1495.81,1158.79 1470.29,1158.79 1470.29,1134.19 " />
  <rect x="1470.54" y="1044.96" class="st71" width="25.13" height="15.64" />
  <text transform="matrix(1 0 0 1 1474.0557 1059.165)" class="st18 st19 st72">19</text>
  <rect x="1470.54" y="1090.4" class="st71" width="25.13" height="15.64" />
  <text transform="matrix(1 0 0 1 1474.0557 1104.6016)" class="st18 st19 st72">20</text>
  <rect x="1470.54" y="1138.67" class="st71" width="25.13" height="15.64" />
  <text transform="matrix(1 0 0 1 1474.0557 1152.875)" class="st18 st19 st72">21</text>
  <g>
    <rect x="1505.61" y="1044.6" class="st73" width="119.66" height="16.37" />
    <text transform="matrix(1 0 0 1 1505.6094 1057.2803)" class="st76 st5 st77 local local-19">SETRAN</text>
  </g>
  <g>
    <rect x="1505.61" y="1090.03" class="st73" width="181.17" height="16.37" />
    <text transform="matrix(1 0 0 1 1505.6094 1102.7188)" class="st76 st5 st77 local local-20">Museu</text>
  </g>
  <g>
    <rect x="1505.61" y="1138.67" class="st73" width="139.72" height="16.37" />
    <text transform="matrix(1 0 0 1 1505.6094 1151.3525)" class="st76 st5 st77 local local-21">Viveiro</text>
  </g>
</svg>